<?xml version="1.0" encoding="UTF-8" standalone="no"?>
<!DOCTYPE svg PUBLIC "-//W3C//DTD SVG 1.1//EN" "http://www.w3.org/Graphics/SVG/1.1/DTD/svg11.dtd">
<svg width="3800px" height="1700px" version="1.1" xmlns="http://www.w3.org/2000/svg" xmlns:xlink="http://www.w3.org/1999/xlink" xml:space="preserve" xmlns:serif="http://www.serif.com/" style="fill-rule:evenodd;clip-rule:evenodd;stroke-linejoin:round;stroke-miterlimit:2;">
    <g transform="matrix(1,0,0,1,-445.267,-10568.7)">
        <g>
            <g>
                <g>
                    <g transform="matrix(1,0,0,1,25.1279,3099.22)">
                        <g transform="matrix(1,0,0,1,100,0)">
                            <path d="M850.792,7872.53C843.183,7886.01 825.371,7895.87 797.356,7902.1C773.491,7907.63 745.995,7909.88 714.867,7908.84C719.017,7862.84 724.032,7816.32 729.912,7769.28C783.175,7764.79 821.566,7773.26 845.085,7794.7C867.221,7815.46 869.123,7841.4 850.792,7872.53ZM740.288,8191.59C728.528,8193.32 717.288,8194.01 706.566,8193.66C704.837,8151.47 704.145,8107.54 704.491,8061.89C733.198,8060.16 756.198,8061.2 773.491,8065C806.348,8071.57 828.83,8081.26 840.935,8094.05C852.003,8105.81 853.905,8118.78 846.642,8132.96C840.416,8146.11 827.446,8158.21 807.732,8169.28C787.672,8180.35 765.19,8187.78 740.288,8191.59ZM1081.66,8134.52C1078.89,8117.92 1074.91,8102.35 1069.72,8087.83C1061.77,8064.31 1051.39,8045.11 1038.6,8030.24C1027.53,8017.1 1011.1,8003.61 989.311,7989.77C964.063,7974.21 944.522,7967.29 930.687,7969.02L931.725,7968.5L932.243,7968.5C951.958,7966.43 971.499,7956.05 990.868,7937.38C1016.46,7912.82 1031.85,7884.11 1037.04,7851.25C1041.88,7821.16 1037.9,7790.73 1025.11,7759.95C1013,7729.86 994.672,7703.92 970.116,7682.13C944.522,7659.3 916.507,7644.25 886.07,7636.99C849.409,7628.69 799.777,7624.37 737.175,7624.02C668.348,7623.68 595.889,7623.5 519.798,7623.5C519.453,7623.5 515.994,7623.68 509.422,7624.02L500.084,7624.02L489.708,7624.54C471.031,7624.89 461.52,7624.54 461.174,7623.5C498.873,7777.41 511.843,7943.95 500.084,8123.11C496.28,8183.63 489.708,8242.26 480.37,8298.98C477.257,8319.73 473.798,8338.92 469.994,8356.56C467.227,8370.4 464.633,8381.47 462.212,8389.77L740.807,8389.77C833.845,8389.77 913.221,8371.61 978.935,8335.29C1062.29,8288.6 1096.53,8221.68 1081.66,8134.52Z" style="fill:#ffb100;fill-rule:nonzero;"/>
                            <path d="M1102.2,8131.04C1118.64,8227.47 1081.34,8301.81 989.012,8353.53C920.499,8391.39 837.807,8410.6 740.807,8410.6L462.212,8410.6C455.654,8410.6 449.48,8407.51 445.545,8402.27C441.611,8397.02 440.376,8390.23 442.212,8383.93C444.505,8376.07 446.944,8365.58 449.629,8352.17C453.347,8334.93 456.724,8316.17 459.813,8295.59C469.041,8239.54 475.532,8181.61 479.295,8121.74C490.906,7944.85 478.161,7780.42 440.939,7628.46C438.28,7617.6 444.66,7606.58 455.397,7603.49C459.407,7602.33 463.492,7602.43 467.219,7603.56C470.271,7603.65 479.513,7603.88 489.047,7603.71L499.044,7603.21C499.39,7603.2 499.737,7603.19 500.084,7603.19L508.901,7603.19C515.793,7602.82 519.426,7602.67 519.798,7602.67C595.926,7602.67 668.419,7602.84 737.29,7603.19C801.782,7603.54 852.902,7608.12 890.906,7616.73C924.593,7624.77 955.655,7641.31 983.943,7666.54C1010.96,7690.52 1031.12,7719.06 1044.35,7751.95C1058.72,7786.54 1063.05,7820.75 1057.62,7854.5C1051.72,7891.83 1034.37,7924.51 1005.33,7952.37C1000.12,7957.39 994.893,7961.88 989.639,7965.85C993.155,7967.79 996.769,7969.9 1000.48,7972.19C1024.43,7987.39 1042.37,8002.37 1054.39,8016.65C1068.74,8033.33 1080.54,8054.77 1089.35,8080.82C1094.93,8096.45 1099.22,8113.18 1102.2,8131.04ZM520.181,7644.34L510.517,7644.82C510.153,7644.84 509.788,7644.85 509.422,7644.85L500.605,7644.85L490.748,7645.35L490.094,7645.37L487.707,7645.4C521.013,7793.74 532.1,7953.42 520.876,8124.41C517.027,8185.65 510.375,8244.97 500.973,8302.07C497.789,8323.29 494.249,8342.92 490.422,8360.65C489.847,8363.52 489.279,8366.29 488.712,8368.93L740.807,8368.93C829.883,8368.93 905.942,8351.83 968.754,8317.12C1043.23,8275.4 1074.41,8215.9 1061.12,8138.02L1061.11,8137.94C1058.55,8122.62 1054.89,8108.24 1049.99,8094.5C1043,8073.84 1034.05,8056.89 1022.66,8043.66C1012.69,8031.82 997.771,8019.82 978.379,8007.51C958.689,7995.37 944.06,7988.35 933.271,7989.69C923.201,7990.95 913.689,7984.77 910.748,7975.06C907.807,7965.35 912.293,7954.93 921.37,7950.39L922.408,7949.87C925.022,7948.56 927.879,7947.82 930.792,7947.7C946.232,7945.86 961.224,7937.02 976.444,7922.34C998.556,7901.13 1011.98,7876.39 1016.47,7847.94C1020.72,7821.57 1017.09,7794.92 1005.78,7767.72C994.889,7740.65 978.384,7717.32 956.249,7697.67C933.388,7677.28 908.42,7663.74 881.47,7657.31C845.915,7649.26 797.771,7645.19 737.07,7644.85C668.393,7644.51 596.098,7644.34 520.181,7644.34ZM865.425,8141.97C857.709,8158.2 842.274,8173.78 817.796,8187.52C795.672,8199.73 770.898,8207.99 743.434,8212.18L743.319,8212.2C730.269,8214.12 717.793,8214.87 705.894,8214.48C694.985,8214.13 686.197,8205.42 685.75,8194.51C684.008,8151.99 683.31,8107.73 683.658,8061.73C683.741,8050.77 692.299,8041.75 703.238,8041.09C734.332,8039.22 759.236,8040.53 777.577,8044.57C816.06,8052.27 841.891,8064.75 856.106,8079.77C873.805,8098.58 876.84,8119.32 865.425,8141.97ZM725.246,8081.93C725.212,8112.85 725.673,8142.95 726.637,8172.23L729.492,8171.96C730.779,8171.81 732.066,8171.66 733.353,8171.51L737.199,8170.98C759.519,8167.57 779.687,8160.96 797.533,8151.11C812.577,8142.67 823.063,8134.07 827.814,8124.04C827.906,8123.85 828.001,8123.66 828.099,8123.47C830.927,8117.94 830.074,8112.91 825.8,8108.37C815.764,8097.76 796.646,8090.88 769.015,8085.35C757.29,8082.77 742.699,8081.68 725.246,8081.93ZM1102.2,8131.04L1102.19,8131.01L1102.21,8131.09L1102.2,8131.04ZM868.744,7883.1C880.463,7863.2 885.107,7844.78 883.891,7828.2C882.574,7810.24 874.658,7793.87 859.334,7779.51C832.295,7754.85 788.913,7743.4 728.159,7748.53C718.351,7749.35 710.46,7756.93 709.239,7766.7C703.33,7813.98 698.289,7860.73 694.118,7906.97C693.603,7912.68 695.461,7918.34 699.256,7922.64C703.05,7926.93 708.446,7929.47 714.173,7929.66C747.341,7930.77 776.633,7928.29 802.062,7922.39C837.618,7914.49 859.23,7899.97 868.937,7882.76L868.744,7883.1ZM737.725,7888.16C757.89,7887.71 776.239,7885.61 792.836,7881.76C813.165,7877.24 827.125,7872.08 832.647,7862.29L832.84,7861.95C845.077,7841.17 845.613,7823.76 831.049,7810.1C813.395,7794 785.704,7787.78 748.475,7789.03C744.451,7822.33 740.865,7855.37 737.725,7888.16ZM480.593,7615.96L480.938,7616.91C480.832,7616.6 480.718,7616.28 480.593,7615.96ZM480.201,7615.02L480.493,7615.72L480.233,7615.08L480.201,7615.02ZM479.771,7614.11L480.051,7614.7L479.801,7614.17L479.771,7614.11ZM479.308,7613.24L479.394,7613.4L479.314,7613.25L479.308,7613.24Z" style="fill-opacity:0.65;"/>
                        </g>
                        <g transform="matrix(1,0,0,1,80,0)">
                            <path d="M1397.09,8055.14C1411.27,7984.24 1432.19,7908.32 1459.86,7827.39C1486.49,7904.52 1506.73,7976.98 1520.56,8044.77C1481.82,8058.26 1440.67,8061.71 1397.09,8055.14ZM1823.54,8389.77C1822.85,8386.66 1794.23,8302.95 1737.68,8138.67C1681.13,7974.38 1661.5,7803.18 1678.8,7625.06L1241.45,7625.06C1248.37,7831.19 1226.06,8009.4 1174.52,8159.68C1122.99,8309.96 1096.88,8386.66 1096.18,8389.77L1399.68,8389.77C1383.08,8342.38 1375.64,8285.84 1377.37,8220.12C1441.01,8238.45 1496.01,8237.07 1542.35,8215.97C1544.43,8283.41 1537.16,8341.35 1520.56,8389.77L1823.54,8389.77Z" style="fill:#ffb100;fill-rule:nonzero;"/>
                            <path d="M1398.02,8246.77C1398.68,8298.59 1405.71,8343.98 1419.34,8382.88C1421.58,8389.25 1420.58,8396.31 1416.67,8401.82C1412.77,8407.33 1406.43,8410.6 1399.68,8410.6L1096.18,8410.6C1089.87,8410.6 1083.89,8407.73 1079.93,8402.8C1075.98,8397.87 1074.48,8391.42 1075.85,8385.25C1076.55,8382.11 1102.79,8304.64 1154.82,8152.92C1205.63,8004.75 1227.45,7829.01 1220.63,7625.76C1220.44,7620.11 1222.55,7614.64 1226.47,7610.58C1230.4,7606.52 1235.8,7604.23 1241.45,7604.23L1678.8,7604.23C1684.67,7604.23 1690.27,7606.71 1694.22,7611.06C1698.17,7615.41 1700.1,7621.22 1699.53,7627.07C1682.53,7802.14 1701.8,7970.42 1757.38,8131.89C1814.43,8297.63 1843.18,8382.11 1843.88,8385.25C1845.25,8391.42 1843.75,8397.87 1839.79,8402.8C1835.84,8407.73 1829.86,8410.6 1823.54,8410.6L1520.56,8410.6C1513.83,8410.6 1507.52,8407.35 1503.61,8401.88C1499.7,8396.4 1498.67,8389.38 1500.85,8383.01C1514.32,8343.75 1521.23,8297.93 1521.82,8245.59C1484.95,8255.96 1443.69,8256.5 1398.02,8246.77ZM1656.04,7645.89L1262.88,7645.89C1267.67,7845.81 1244.68,8019.31 1194.23,8166.44C1159.53,8267.64 1136.41,8335.13 1124.95,8368.93L1371.56,8368.93C1360.14,8325.57 1355.07,8275.79 1356.55,8219.57C1356.72,8213.13 1359.86,8207.12 1365.07,8203.31C1370.27,8199.5 1376.94,8198.32 1383.14,8200.1C1441.22,8216.83 1491.42,8216.26 1533.72,8197.01C1540.07,8194.12 1547.43,8194.6 1553.35,8198.28C1559.27,8201.96 1562.96,8208.36 1563.17,8215.33C1564.96,8273.27 1560,8324.46 1548.51,8368.93L1794.73,8368.93C1782.46,8332.84 1756.84,8258.36 1717.98,8145.45C1662.88,7985.38 1642.22,7818.87 1656.04,7645.89ZM1376.66,8051.06C1375.54,8056.64 1376.76,8062.45 1380.03,8067.11C1383.31,8071.77 1388.35,8074.89 1393.98,8075.74C1441.08,8082.85 1485.55,8079.02 1527.41,8064.44C1537.26,8061.01 1543.06,8050.82 1540.97,8040.6C1526.97,7971.99 1506.51,7898.65 1479.55,7820.59C1476.65,7812.18 1468.73,7806.54 1459.83,7806.56C1450.93,7806.57 1443.03,7812.23 1440.15,7820.65C1412.16,7902.52 1391,7979.33 1376.66,8051.06ZM1459.94,7894.41C1444.62,7943.96 1432.02,7991.47 1422.16,8036.95C1447.8,8038.69 1472.48,8036.52 1496.21,8030.39C1486.73,7986.95 1474.63,7941.62 1459.94,7894.41Z" style="fill-opacity:0.65;"/>
                        </g>
                        <g transform="matrix(1,0,0,1,10,0)">
                            <path d="M2286.83,7853.85C2280.26,7912.99 2230.8,7936.16 2138.45,7923.37C2134.65,7880.48 2132.57,7835.69 2132.22,7789C2173.73,7786.92 2208.83,7790.38 2237.54,7799.38C2273.16,7810.79 2289.59,7828.95 2286.83,7853.85ZM2582.02,8301.57C2590.67,8268.72 2562.48,8196.95 2551.41,8205.59C2529.28,8223.23 2508.35,8226.52 2488.64,8215.45C2477.92,8209.92 2468.23,8200.58 2459.59,8187.44C2453.02,8178.1 2446.27,8165.82 2439.35,8150.6C2439.35,8150.26 2436.93,8144.55 2432.09,8133.48L2418.6,8102.35L2404.08,8071.74C2395.43,8054.11 2385.57,8038.02 2374.5,8023.5C2405.98,8013.47 2427.42,8005.86 2438.84,8000.67C2470.66,7986.83 2494.52,7964.87 2510.43,7934.78C2524.26,7909.19 2531.18,7880.83 2531.18,7849.7C2531.18,7842.44 2530.84,7835 2530.14,7827.39C2529.11,7816.67 2527.38,7806.12 2524.96,7795.74C2518.73,7767.38 2508.01,7742.13 2492.79,7720C2448.87,7656.01 2373.29,7624.02 2266.08,7624.02L1900.84,7624.02C1938.54,7879.96 1938.19,8132.1 1899.8,8380.43C1899.46,8382.16 1899.11,8383.72 1898.77,8385.1L1898.77,8386.66L2205.89,8386.66C2181.68,8286.7 2165.77,8180.35 2158.16,8067.59L2168.02,8070.71C2200.19,8083.85 2223.53,8106.85 2238.06,8139.71C2243.59,8152.5 2248.44,8167.72 2252.59,8185.36L2257.26,8209.23L2261.41,8232.57L2268.67,8268.89C2271.44,8282.38 2274.38,8294.31 2277.49,8304.68C2285.79,8330.62 2296.86,8351.72 2310.69,8367.98C2348.05,8412.59 2394.56,8431.1 2450.25,8423.49C2476.88,8419.68 2500.92,8409.66 2522.36,8393.4C2543.81,8376.8 2560.41,8355.7 2572.17,8330.11C2575.97,8321.11 2579.26,8311.6 2582.02,8301.57Z" style="fill:#ffb100;fill-rule:nonzero;"/>
                            <path d="M1879.29,8376.74C1917.29,8130.61 1917.59,7880.72 1880.23,7627.06C1879.35,7621.07 1881.12,7614.99 1885.07,7610.4C1889.03,7605.82 1894.79,7603.19 1900.84,7603.19L2266.08,7603.19C2381.72,7603.19 2462.59,7639.19 2509.96,7708.2C2526.66,7732.48 2538.47,7760.16 2545.24,7791.01C2547.87,7802.28 2549.75,7813.74 2550.89,7825.5C2551.64,7833.76 2552.01,7841.82 2552.01,7849.7C2552.01,7884.46 2544.21,7916.11 2528.85,7944.52C2510.68,7978.87 2483.47,8003.98 2447.46,8019.63C2439.18,8023.4 2425.83,8028.41 2407.39,8034.64C2412.87,8043.5 2418,8052.82 2422.78,8062.57C2422.82,8062.65 2422.86,8062.73 2422.9,8062.81L2437.42,8093.42C2437.53,8093.64 2437.62,8093.85 2437.72,8094.07C2437.72,8094.07 2451.21,8125.2 2451.18,8125.13C2455.21,8134.34 2457.67,8140.17 2458.61,8142.61C2464.78,8156.14 2470.75,8167.1 2476.62,8175.45C2476.75,8175.62 2476.87,8175.8 2476.99,8175.99C2483.38,8185.69 2490.28,8192.85 2498.2,8196.94L2498.84,8197.28C2511.37,8204.32 2524.36,8200.51 2538.59,8189.18C2547.86,8181.93 2562.42,8179.99 2575.63,8195.7C2583.16,8204.66 2592.45,8224.18 2598.28,8245.65C2604.19,8267.41 2606.36,8290.94 2602.17,8306.87L2602.11,8307.11C2599.09,8318.05 2595.5,8328.42 2591.35,8338.22L2591.1,8338.8C2577.89,8367.55 2559.2,8391.22 2534.95,8410C2510.64,8428.43 2483.39,8439.8 2453.07,8444.13C2389.91,8452.76 2337.08,8431.95 2294.83,8381.48C2279.41,8363.36 2266.9,8339.94 2257.53,8310.67C2254.26,8299.77 2251.17,8287.24 2248.26,8273.07C2248.25,8273.04 2248.25,8273.01 2248.24,8272.97L2240.98,8236.66C2240.95,8236.51 2240.92,8236.36 2240.89,8236.22C2240.89,8236.22 2236.74,8212.87 2236.81,8213.23L2232.23,8189.82C2228.42,8173.67 2224.01,8159.71 2219.01,8148.13C2210.3,8128.44 2197.86,8112.91 2181.64,8101.61C2189.92,8200.04 2204.75,8293.42 2226.14,8381.75C2227.65,8387.96 2226.22,8394.51 2222.27,8399.54C2218.32,8404.56 2212.28,8407.49 2205.89,8407.49L1898.77,8407.49C1887.26,8407.49 1877.93,8398.16 1877.93,8386.66L1877.93,8385.1C1877.93,8383.4 1878.14,8381.7 1878.55,8380.05C1878.8,8379.05 1879.05,8377.95 1879.29,8376.74ZM1924.86,7644.85C1958.56,7888.59 1957.96,8128.93 1923.07,8365.82L2179.63,8365.82C2158.51,8272.31 2144.42,8173.37 2137.38,8069C2136.91,8062.13 2139.88,8055.47 2145.29,8051.21C2150.7,8046.96 2157.87,8045.65 2164.44,8047.73L2174.3,8050.84C2174.84,8051.01 2175.38,8051.2 2175.9,8051.42C2213.17,8066.65 2240.29,8093.22 2257.18,8131.44C2263.14,8145.22 2268.4,8161.59 2272.87,8180.59C2272.93,8180.85 2272.98,8181.1 2273.03,8181.36L2277.7,8205.23C2277.72,8205.34 2277.75,8205.46 2277.77,8205.58C2277.77,8205.58 2281.92,8228.92 2281.84,8228.49L2285.47,8246.64C2285.47,8246.64 2289.1,8264.8 2289.08,8264.7C2291.7,8277.51 2294.49,8288.84 2297.33,8298.34C2304.68,8321.31 2314.31,8340.08 2326.67,8354.6C2359.01,8393.24 2399.22,8409.44 2447.3,8402.87C2470.37,8399.57 2491.2,8390.88 2509.61,8376.93C2528.32,8362.44 2542.8,8344.01 2553.1,8321.71C2556.49,8313.66 2559.42,8305.15 2561.9,8296.18C2564.59,8285.83 2561.9,8270.68 2558.07,8256.56C2555.95,8248.76 2551.94,8239.46 2548.69,8232.56C2524.17,8246.39 2500.66,8246.09 2478.44,8233.62L2479.09,8233.96C2465.67,8227.04 2453.29,8215.65 2442.45,8199.28C2435.3,8189.1 2427.91,8175.77 2420.39,8159.22C2420.07,8158.53 2419.8,8157.82 2419.56,8157.1C2419.06,8155.9 2416.33,8149.42 2413,8141.83C2412.99,8141.81 2412.99,8141.79 2412.97,8141.76L2399.63,8110.96L2385.37,8080.91C2377.34,8064.54 2368.21,8049.61 2357.93,8036.12C2353.83,8030.73 2352.6,8023.69 2354.64,8017.23C2356.67,8010.77 2361.72,8005.7 2368.18,8003.65C2398.52,7993.98 2419.21,7986.7 2430.53,7981.56C2457.84,7969.69 2478.36,7950.87 2492.1,7924.87C2504.32,7902.27 2510.35,7877.19 2510.35,7849.7C2510.35,7843.05 2510.03,7836.24 2509.41,7829.4C2508.46,7819.6 2506.88,7809.96 2504.61,7800.21C2498.99,7774.6 2489.36,7751.79 2475.62,7731.79C2435.14,7672.83 2364.87,7644.85 2266.08,7644.85L1924.86,7644.85ZM2307.53,7856.15C2311.28,7822.39 2292.2,7795.01 2243.9,7779.53C2213.08,7769.88 2175.56,7765.97 2131.18,7768.19C2120.04,7768.75 2111.31,7777.99 2111.39,7789.15C2111.74,7836.43 2113.85,7881.78 2117.7,7925.21C2118.56,7934.88 2125.98,7942.67 2135.59,7944C2244.41,7959.08 2299.79,7925.84 2307.53,7856.15ZM2153.33,7809.25C2153.93,7842.04 2155.43,7873.85 2157.81,7904.68C2223.61,7911.12 2261.12,7896.6 2266.12,7851.55C2267.91,7835.41 2254.27,7826.61 2231.31,7819.26C2209.35,7812.38 2183.35,7809.12 2153.33,7809.25Z" style="fill-opacity:0.65;"/>
                        </g>
                        <g transform="matrix(1,0,0,1,-60,0)">
                            <path d="M2943.63,8200.41C2912.15,8200.41 2885.87,8182.59 2864.77,8146.97C2842.98,8110.31 2832.09,8063.96 2832.09,8007.93C2832.09,7962.62 2841.6,7920.6 2860.62,7881.86C2883.45,7834.83 2908.52,7809.23 2935.85,7805.08C2951.41,7802.66 2966.8,7806.98 2982.02,7818.05C2996.2,7828.77 3008.3,7843.82 3018.33,7863.19C3030.09,7885.67 3039.26,7910.05 3045.83,7936.34C3051.71,7960.2 3054.65,7984.07 3054.65,8007.93C3054.65,8063.96 3043.76,8110.31 3021.97,8146.97C3000.87,8182.59 2974.75,8200.41 2943.63,8200.41ZM3235.71,7872.53C3217.03,7819.61 3190.58,7770.49 3156.33,7725.19C3126.93,7685.76 3092,7655.49 3051.54,7634.4C3007.96,7611.57 2963.34,7602.75 2917.69,7607.94C2839.18,7616.58 2766.72,7668.46 2700.31,7763.58C2645.66,7841.4 2618.34,7925.96 2618.34,8017.27C2618.34,8130.02 2649.64,8223.23 2712.24,8296.9C2773.81,8368.84 2849.72,8404.81 2939.99,8404.81C3030.27,8404.81 3106.01,8368.84 3167.23,8296.9C3229.83,8223.23 3261.13,8130.02 3261.13,8017.27C3261.13,7968.85 3252.66,7920.6 3235.71,7872.53Z" style="fill:#ffb100;fill-rule:nonzero;"/>
                            <path d="M3255.36,7865.59C3235.97,7810.65 3208.5,7759.66 3172.95,7712.62C3141.67,7670.66 3104.34,7638.43 3061.17,7615.92C3013.72,7591.07 2965.08,7581.59 2915.33,7587.24C2831.86,7596.43 2753.89,7650.44 2683.23,7751.65C2626.04,7833.09 2597.51,7921.66 2597.51,8017.27C2597.51,8135.51 2630.72,8233.14 2696.37,8310.39C2762.23,8387.36 2843.48,8425.65 2939.99,8425.65C3036.54,8425.65 3117.62,8387.34 3183.1,8310.4C3248.76,8233.14 3281.97,8135.51 3281.97,8017.27C3281.97,7966.53 3273.12,7915.97 3255.36,7865.6L3255.36,7865.59ZM3216.06,7879.45C3198.1,7828.56 3172.65,7781.33 3139.63,7737.64C3112.2,7700.85 3079.66,7672.56 3041.87,7652.85C3002.2,7632.07 2961.6,7623.91 2919.97,7628.65C2846.49,7636.74 2779.54,7686.49 2717.36,7775.55C2665.29,7849.7 2639.17,7930.26 2639.17,8017.27C2639.17,8124.53 2668.57,8213.33 2728.07,8283.36C2785.38,8350.32 2855.97,8383.98 2939.99,8383.98C3023.99,8383.98 3094.4,8350.34 3151.35,8283.41C3210.91,8213.33 3240.3,8124.53 3240.3,8017.27C3240.3,7971.16 3232.2,7925.23 3216.06,7879.45ZM2943.63,8221.24C2981.51,8221.24 3014.22,8200.94 3039.89,8157.59C3063.35,8118.12 3075.48,8068.29 3075.48,8007.93C3075.48,7982.41 3072.35,7956.88 3066.06,7931.35C3059.06,7903.34 3049.29,7877.43 3036.79,7853.53C3025.21,7831.16 3011.02,7813.86 2994.58,7801.43C2974.01,7786.47 2953.36,7781.27 2932.64,7784.5C2900.52,7789.38 2868.78,7817.34 2841.88,7872.77C2821.51,7914.24 2811.25,7959.32 2811.25,8007.93C2811.25,8068.29 2823.39,8118.12 2846.86,8157.61C2872.5,8200.91 2905.35,8221.24 2943.63,8221.24ZM2943.63,8179.57C2918.94,8179.57 2899.24,8164.29 2882.7,8136.35C2862.57,8102.49 2852.92,8059.64 2852.92,8007.93C2852.92,7965.93 2861.68,7926.96 2879.32,7891.05C2889.6,7869.86 2900.18,7853.45 2911.43,7841.97C2920.31,7832.91 2929.3,7827.15 2938.97,7825.68C2949.46,7824.05 2959.59,7827.5 2969.76,7834.9C2981.38,7843.69 2991.4,7856.48 2999.83,7872.77C3010.89,7893.91 3019.46,7916.76 3025.62,7941.39C3031.07,7963.53 3033.82,7985.73 3033.82,8007.93C3033.82,8059.64 3024.16,8102.49 3004.06,8136.33C2987.51,8164.26 2968.01,8179.57 2943.63,8179.57Z" style="fill-opacity:0.65;"/>
                        </g>
                        <g transform="matrix(1,0,0,1,-80,0)">
                            <path d="M3715.08,7625.06C3719.58,7642.01 3725.28,7684.89 3732.2,7753.72C3740.16,7833.27 3745.17,7907.46 3747.25,7976.28C3696.75,7911.26 3661.47,7853.33 3641.41,7802.49C3623.77,7758.91 3610.63,7701.32 3601.98,7629.73L3315.09,7629.73C3345.87,7772.92 3352.61,7942.22 3335.32,8137.63C3330.13,8198.85 3322.7,8259.2 3313.01,8318.69C3309.9,8337.02 3306.79,8354.32 3303.67,8370.57C3302.64,8375.76 3301.77,8380.43 3301.08,8384.58L3300.56,8386.66L3300.56,8388.21L3300.04,8389.25L3300.04,8389.77L3564.11,8389.77C3538.52,8324.75 3525.2,8249.69 3524.16,8164.61C3524.16,8137.29 3525.2,8111.52 3527.28,8087.31C3528.31,8078.66 3529.35,8071.57 3530.39,8066.04C3531.08,8060.85 3531.6,8058.6 3531.94,8059.29C3531.6,8058.95 3531.94,8059.12 3532.98,8059.81C3533.67,8060.5 3534.71,8061.54 3536.1,8062.92C3539.9,8067.07 3544.22,8072.09 3549.07,8077.97C3564.28,8096.3 3579.33,8117.4 3594.2,8141.26C3614.95,8173.77 3633.46,8208.53 3649.71,8245.54C3670.12,8291.89 3686.37,8339.96 3698.48,8389.77L3984.86,8389.77L3984.34,8389.25L3984.34,8388.21C3983.99,8386.83 3983.64,8385.44 3983.3,8384.06C3982.61,8378.87 3981.74,8373.34 3980.7,8367.46C3977.25,8348.78 3973.96,8328.9 3970.85,8307.8C3960.82,8240.35 3953.21,8173.95 3948.02,8108.58C3931.76,7899.33 3943.35,7738.16 3982.78,7625.06L3715.08,7625.06Z" style="fill:#ffb100;fill-rule:nonzero;"/>
                            <path d="M3723.48,7908.47C3720.81,7860 3716.8,7809.11 3711.47,7755.8C3704.73,7688.73 3699.33,7646.92 3694.94,7630.4C3693.28,7624.15 3694.62,7617.48 3698.57,7612.36C3702.51,7607.23 3708.61,7604.23 3715.08,7604.23L3982.78,7604.23C3989.53,7604.23 3995.86,7607.49 3999.76,7612.99C4003.67,7618.49 4004.67,7625.55 4002.45,7631.92C3963.72,7743.03 3952.82,7901.4 3968.79,8106.93C3973.94,8171.83 3981.5,8237.77 3991.46,8304.76C3994.53,8325.59 3997.78,8345.23 4001.22,8363.84C4002.23,8369.57 4003.09,8374.98 4003.78,8380.08L4004.41,8382.58C4006.18,8387.4 4006.15,8392.81 4004.1,8397.74C4000.88,8405.52 3993.28,8410.6 3984.86,8410.6L3698.48,8410.6C3688.87,8410.6 3680.51,8404.03 3678.24,8394.69C3666.42,8346.08 3650.56,8299.17 3630.64,8253.92C3614.82,8217.92 3596.83,8184.1 3576.52,8152.28C3566.64,8136.42 3556.68,8121.83 3546.62,8108.48C3545.53,8126.36 3544.99,8145.02 3544.99,8164.36C3546,8246.64 3558.74,8319.25 3583.5,8382.14C3586.02,8388.55 3585.21,8395.8 3581.33,8401.5C3577.45,8407.19 3571,8410.6 3564.11,8410.6L3300.04,8410.6C3288.53,8410.6 3279.21,8401.27 3279.21,8389.77L3279.21,8389.25C3279.21,8387.44 3279.44,8385.64 3279.91,8383.9C3280.01,8383.13 3280.16,8382.36 3280.35,8381.6L3280.69,8380.23C3281.38,8376.11 3282.23,8371.55 3283.21,8366.65C3286.3,8350.53 3289.39,8333.38 3292.45,8315.34C3302.05,8256.38 3309.42,8196.55 3314.57,8135.8C3331.65,7942.77 3325.12,7775.54 3294.72,7634.11C3293.4,7627.95 3294.93,7621.53 3298.88,7616.64C3302.84,7611.74 3308.79,7608.89 3315.09,7608.89L3601.98,7608.89C3612.52,7608.89 3621.4,7616.77 3622.66,7627.23C3631.04,7696.61 3643.63,7752.44 3660.79,7794.84C3674.41,7829.37 3695.34,7867.23 3723.48,7908.47ZM3954.27,7645.89L3740.26,7645.89C3743.95,7669.29 3748.2,7704.54 3752.93,7751.65C3760.94,7831.71 3765.98,7906.38 3768.07,7975.66C3768.34,7984.67 3762.78,7992.84 3754.3,7995.89C3745.81,7998.94 3736.32,7996.19 3730.79,7989.06C3678.83,7922.15 3642.67,7862.45 3622.1,7810.3C3605.45,7769.16 3592.55,7715.93 3583.66,7650.56L3340.58,7650.56C3367.33,7790.05 3372.57,7953.01 3356.08,8139.39C3350.85,8201.15 3343.34,8262.03 3333.55,8322.18C3330.77,8338.55 3327.99,8354.09 3325.18,8368.93L3534.49,8368.93C3514.69,8308.6 3504.25,8240.55 3503.33,8164.61C3503.33,8136.66 3504.39,8110.3 3506.52,8085.53C3506.54,8085.29 3506.56,8085.06 3506.59,8084.83C3507.67,8075.81 3508.76,8068.39 3509.85,8062.56C3510.14,8060.56 3510.51,8058.74 3510.93,8057.09C3511.25,8050.04 3514.77,8045.19 3520.04,8041.88C3524.4,8038.71 3528.88,8037.9 3533.08,8038.3C3534.74,8038.42 3536.55,8038.76 3538.47,8039.43C3540.24,8039.99 3542.21,8040.84 3544.14,8042.23L3544.54,8042.48C3545.68,8043.24 3546.74,8044.11 3547.71,8045.08C3548.41,8045.77 3549.44,8046.81 3550.83,8048.19C3551.04,8048.41 3551.25,8048.62 3551.45,8048.85C3555.47,8053.23 3560.03,8058.52 3565.09,8064.66C3580.87,8083.66 3596.47,8105.51 3611.76,8130.05C3633.08,8163.45 3652.09,8199.15 3668.78,8237.15C3687.49,8279.65 3702.8,8323.58 3714.69,8368.93L3959.8,8368.93C3956.45,8350.7 3953.26,8331.33 3950.24,8310.86C3940.14,8242.94 3932.48,8176.06 3927.25,8110.19C3911.99,7913.78 3921.25,7759.03 3954.27,7645.89ZM3539.21,8078.82C3536.75,8079.74 3534.16,8080.17 3531.58,8080.12C3533.85,8080.22 3536.2,8079.96 3538.54,8079.12L3539.21,8078.82ZM3515.26,8071.83C3516.86,8074.03 3518.65,8075.6 3520.44,8076.73L3520.22,8076.52C3519.16,8075.79 3518.15,8074.96 3517.21,8074.02C3516.47,8073.28 3515.82,8072.55 3515.26,8071.83ZM3548.63,8046.76C3549.33,8047.7 3549.98,8048.78 3550.58,8049.98C3552.71,8054.24 3553.25,8058.94 3552.38,8063.34C3553.38,8059.4 3553.73,8053.15 3548.63,8046.76Z" style="fill-opacity:0.65;"/>
                        </g>
                    </g>
                    <g transform="matrix(1,0,0,1,62.0706,3568.67)">
                        <path d="M834.404,8216.73C810.397,8241.55 790.561,8258.54 774.895,8267.7C740.308,8288.04 706.841,8287.43 674.492,8265.87C644.381,8245.93 625.562,8216.12 618.034,8176.45C613.152,8150.82 614.474,8125.89 622.002,8101.68C630.343,8075.03 644.686,8055.4 665.032,8042.78C673.78,8037.29 681.511,8033.22 688.225,8030.58C697.38,8026.71 705.823,8024.68 713.554,8024.47C721.489,8024.47 728.915,8025.8 735.832,8028.44C744.174,8031.49 750.074,8035.97 753.533,8041.87C755.974,8046.14 757.296,8050.11 757.5,8053.77L757.5,8053.46C750.582,8040.85 740.105,8034.85 726.067,8035.46C709.587,8036.27 698.296,8044.51 692.192,8060.18C688.937,8068.72 689.853,8078.18 694.939,8088.56C699.618,8098.12 706.027,8105.24 714.165,8109.92C730.237,8119.08 747.022,8122.64 764.519,8120.6C783.033,8118.57 797.986,8110.53 809.38,8096.49C820.773,8082.86 827.487,8062.42 829.521,8035.15C832.573,7994.46 816.195,7964.86 780.388,7946.35C751.295,7931.29 714.063,7925.19 668.694,7928.04C632.073,7930.28 598.198,7942.48 567.07,7964.66C534.925,7987.44 509.392,8016.33 490.471,8051.33C471.347,8086.32 461.683,8122.43 461.479,8159.66C461.276,8199.95 468.193,8236.47 482.231,8269.22C497.897,8305.84 521.192,8334.63 552.116,8355.59C596.469,8385.7 647.535,8399.74 705.315,8397.7C733.798,8396.68 760.246,8390.17 784.66,8378.17C812.737,8364.34 832.064,8345.62 842.644,8322.02C848.951,8307.78 851.392,8289.98 849.968,8268.61C848.34,8246.84 843.152,8229.55 834.404,8216.73Z" style="fill:#ffb100;fill-rule:nonzero;stroke:#000;stroke-opacity:0.65;stroke-width:33.33px;"/>
                    </g>
                    <g transform="matrix(1,0,0,1,62.0706,3568.67)">
                        <path d="M1507.01,8516.72C1499.69,8497.19 1488.8,8481.42 1474.36,8469.42C1458.49,8455.99 1440.59,8449.17 1420.65,8448.97C1394,8448.77 1373.55,8459.45 1359.31,8481.01C1349.34,8496.27 1346.69,8513.57 1351.37,8532.9C1356.26,8553.24 1367.75,8565.24 1385.86,8568.91C1412.51,8573.99 1430.82,8568.19 1440.79,8551.51C1442.82,8547.85 1444.04,8543.88 1444.45,8539.61L1444.45,8539.91L1444.76,8539.91C1444.96,8539.91 1444.96,8540.02 1444.76,8540.22C1446.38,8552.22 1443.33,8562.6 1435.6,8571.35C1427.87,8579.69 1418.61,8584.37 1407.83,8585.39C1392.16,8586.81 1375.48,8584.88 1357.78,8579.59C1349.03,8576.94 1341.61,8573.79 1335.5,8570.13C1302.34,8546.32 1277.83,8505.17 1261.95,8446.68C1246.09,8388.19 1238.15,8313.52 1238.15,8222.68C1238.15,8131.84 1239.73,8066.54 1242.88,8026.76C1246.04,7986.99 1252.6,7957.74 1262.57,7939.02L1107.54,7939.02C1113.84,7967.51 1117.81,7997.11 1119.44,8027.83C1120.46,8049.4 1119.74,8090.49 1117.3,8151.12C1097.57,8153.15 1077.73,8151.12 1057.79,8145.02C1050.06,8142.57 1042.43,8139.62 1034.9,8136.17C1029.01,8133.32 1023.31,8130.16 1017.82,8126.71C1019.65,8082.15 1024.22,8037.6 1031.55,7993.04C1033.79,7979.2 1036.23,7966.08 1038.87,7953.67C1039.28,7951.64 1039.69,7949.6 1040.09,7947.57C1040.5,7945.94 1040.81,7944.41 1041.01,7942.99L1041.62,7941.46L1041.92,7940.24L1041.92,7939.02L874.992,7939.02C897.169,8029.56 904.798,8127.42 897.881,8232.6C895.643,8268 891.777,8302.39 886.284,8335.75C884.453,8347.96 882.418,8359.25 880.18,8369.63C878.553,8377.56 877.027,8384.07 875.603,8389.16L1048.94,8389.16C1033.89,8343.18 1024.12,8292.21 1019.65,8236.26C1053.62,8253.76 1085.06,8258.44 1113.94,8250.3C1126.36,8532.08 1213.74,8671.95 1376.09,8669.92C1399.69,8669.31 1420.24,8666.46 1437.74,8661.37C1460.73,8654.86 1480,8639.45 1495.57,8615.14C1511.13,8590.83 1514.95,8558.02 1507.01,8516.72Z" style="fill:#ffb100;fill-rule:nonzero;stroke:#000;stroke-opacity:0.65;stroke-width:33.33px;"/>
                    </g>
                    <g transform="matrix(1,0,0,1,62.0706,3568.67)">
                        <path d="M1474.36,8192.93C1482.7,8151.22 1495.01,8106.56 1511.28,8058.96C1526.95,8104.33 1538.85,8146.95 1546.99,8186.83C1524.2,8194.76 1499.99,8196.8 1474.36,8192.93ZM1725.21,8389.77C1724.81,8387.94 1707.97,8338.7 1674.71,8242.06C1641.44,8145.42 1629.9,8044.72 1640.07,7939.94L1382.81,7939.94C1386.87,8061.2 1373.75,8166.02 1343.44,8254.42C1313.12,8342.82 1297.76,8387.94 1297.36,8389.77L1475.88,8389.77C1466.12,8361.9 1461.74,8328.63 1462.76,8289.98C1500.2,8300.76 1532.55,8299.94 1559.81,8287.53C1561.03,8327.21 1556.76,8361.28 1546.99,8389.77L1725.21,8389.77Z" style="fill:#ffb100;fill-rule:nonzero;stroke:#000;stroke-opacity:0.65;stroke-width:33.33px;"/>
                    </g>
                    <g transform="matrix(1,0,0,1,22.0706,3568.67)">
                        <path d="M2397.51,8279.6C2396.5,8279.6 2395.38,8272.17 2394.16,8257.32C2392.53,8240.84 2391.51,8222.43 2391.11,8202.09C2389.68,8144.51 2393.34,8097.92 2402.09,8062.31C2402.91,8058.86 2407.59,8058.24 2416.13,8060.48C2419.18,8061.3 2423.05,8062.52 2427.73,8064.15L2433.22,8065.98C2435.46,8066.79 2437.09,8067.4 2438.1,8067.81C2464.35,8076.96 2482.96,8093.34 2493.95,8116.94C2503.92,8138.51 2506.26,8162.21 2500.97,8188.05C2495.48,8213.48 2483.88,8234.74 2466.18,8251.83C2446.85,8270.34 2423.96,8279.6 2397.51,8279.6ZM2629.14,8145.32C2626.5,8116.84 2619.89,8090.49 2609.31,8066.28C2584.49,8009.93 2543.49,7972.8 2486.32,7954.89C2450.72,7943.5 2394.16,7938.01 2316.64,7938.41L2271.78,7938.41L2262.93,7938.11L2243.71,7938.11C2265.88,8028.64 2273.51,8126.5 2266.59,8231.69C2264.36,8267.09 2260.49,8301.47 2255,8334.84C2253.17,8346.84 2251.13,8358.13 2248.89,8368.71C2247.27,8376.65 2245.74,8383.16 2244.32,8388.24C2314.91,8389.67 2350.11,8390.07 2349.91,8389.46L2434.14,8389.46C2470.15,8389.46 2502.09,8382.04 2529.96,8367.18C2559.46,8351.52 2582.55,8328.43 2599.24,8297.91C2624.06,8252.13 2634.03,8201.27 2629.14,8145.32Z" style="fill:#ffb100;fill-rule:nonzero;stroke:#000;stroke-opacity:0.65;stroke-width:33.33px;"/>
                    </g>
                    <g transform="matrix(1,0,0,1,22.0706,3568.67)">
                        <path d="M2864.74,8295.77C2836.66,8295.77 2817.13,8283.06 2806.14,8257.63C2801.67,8247.66 2798.62,8235.45 2796.99,8221.01C2795.57,8210.22 2794.85,8197.51 2794.85,8182.86C2794.85,8138.51 2800.04,8086.53 2810.42,8026.91C2813.67,8007.99 2817.44,7988.66 2821.71,7968.93C2822.52,7965.47 2823.34,7961.91 2824.15,7958.25C2824.56,7956.01 2825.17,7953.27 2825.98,7950.01C2827.2,7944.31 2827.91,7940.96 2828.12,7939.94L2653.25,7939.94C2675.43,8030.27 2683.06,8128.03 2676.14,8233.21C2673.9,8268.82 2670.04,8303.3 2664.54,8336.67C2662.71,8348.67 2660.68,8359.96 2658.44,8370.54C2656.81,8378.48 2655.29,8384.89 2653.86,8389.77L2987.42,8389.77L2987.42,8194.15C2978.06,8211.04 2965.95,8228.02 2951.1,8245.11C2938.08,8259.97 2925.06,8271.56 2912.04,8279.9C2895.76,8290.48 2880,8295.77 2864.74,8295.77Z" style="fill:#ffb100;fill-rule:nonzero;stroke:#000;stroke-opacity:0.65;stroke-width:33.33px;"/>
                    </g>
                    <g transform="matrix(1,0,0,1,22.0706,3568.67)">
                        <path d="M3252.92,8285.4C3229.93,8285.4 3211.42,8280.82 3197.38,8271.67C3185.17,8263.53 3177.54,8252.95 3174.49,8239.93C3171.64,8227.52 3173.17,8215.61 3179.07,8204.22C3185.17,8192.42 3194.43,8183.98 3206.84,8178.89C3209.69,8190.49 3215.89,8200.05 3225.46,8207.58C3235.02,8215.31 3245.9,8219.17 3258.11,8219.17C3272.76,8219.17 3285.27,8213.99 3295.65,8203.61C3305.82,8193.23 3310.91,8180.82 3310.91,8166.38C3310.91,8155.19 3307.75,8145.02 3301.45,8135.86C3294.93,8125.28 3282.63,8117.25 3264.52,8111.75C3244.58,8105.65 3224.34,8105.55 3203.79,8111.45C3188.12,8115.92 3172.76,8123.76 3157.71,8134.95C3161.17,8103.41 3171.85,8077.17 3189.75,8056.21C3207.86,8035.05 3228.91,8024.47 3252.92,8024.47C3270.01,8024.47 3285.88,8030.17 3300.53,8041.56C3314.77,8052.55 3326.27,8067.4 3335.01,8086.12C3338.07,8051.53 3342.24,8016.84 3347.53,7982.05C3349.15,7971.07 3350.88,7960.79 3352.72,7951.23C3353.12,7948.18 3353.63,7945.43 3354.24,7942.99C3354.24,7942.18 3354.34,7941.36 3354.55,7940.55L3354.55,7939.94L3354.85,7939.94L3019.46,7939.94C3041.64,8024.57 3049.27,8120.6 3042.35,8228.02C3040.11,8264.44 3036.25,8299.94 3030.75,8334.53C3028.92,8347.15 3026.89,8358.94 3024.65,8369.93C3023.02,8378.48 3021.5,8385.09 3020.07,8389.77L3353.63,8389.77C3339.59,8349.08 3331.66,8297.2 3329.83,8234.13C3320.67,8250 3309.58,8262.41 3296.56,8271.36C3282.93,8280.72 3268.38,8285.4 3252.92,8285.4Z" style="fill:#ffb100;fill-rule:nonzero;stroke:#000;stroke-opacity:0.65;stroke-width:33.33px;"/>
                    </g>
                    <g transform="matrix(1,0,0,1,2979.87,3568.67)">
                        <path d="M592.095,8111.45C590.06,8088.05 588.941,8063.64 588.738,8038.2C613.152,8036.98 633.802,8038.82 650.688,8043.7C671.644,8049.8 681.308,8059.67 679.68,8073.3C675.611,8105.65 646.416,8118.36 592.095,8111.45ZM1192.99,8437.68C1180.98,8436.66 1169.28,8438.39 1157.89,8442.87C1146.9,8446.94 1138.56,8452.63 1132.87,8459.96C1119.24,8477.45 1115.06,8494.55 1120.35,8511.23C1125.64,8528.52 1139.48,8537.47 1161.86,8538.08C1161.45,8538.9 1161.86,8539.81 1163.08,8540.83C1164.3,8541.64 1165.21,8542.15 1165.83,8542.36C1165.62,8542.56 1164.91,8542.86 1163.69,8543.27L1161.86,8543.88C1083.53,8589.66 1001.13,8564.58 914.665,8468.66C828.199,8372.73 770.622,8273.6 741.936,8171.26C753.533,8167.4 761.467,8164.55 765.74,8162.72C784.457,8154.58 798.495,8141.56 807.854,8123.65C815.992,8108.6 820.061,8091.92 820.061,8073.61C820.061,8069.33 819.857,8064.96 819.45,8060.48C818.84,8054.18 817.823,8047.97 816.399,8041.87C812.737,8025.39 806.43,8010.64 797.478,7997.62C771.64,7959.78 727.186,7940.85 664.116,7940.85L463.005,7940.85C480.705,8005.55 485.792,8099.55 478.264,8222.84C476.026,8261.7 472.567,8301.06 467.888,8340.94C466.464,8353.35 465.04,8365.15 463.616,8376.34C463.209,8380 462.802,8383.26 462.395,8386.11C462.191,8387.12 461.988,8387.94 461.784,8388.55L461.784,8389.46L628.716,8389.46C613.66,8327.82 604.098,8262.41 600.029,8193.23C600.233,8195.07 601.148,8196.59 602.776,8197.81C656.08,8324.97 717.827,8427.81 788.017,8506.34C884.249,8613.56 986.178,8660.76 1093.8,8647.95C1136.12,8643.06 1174.47,8626.79 1208.86,8599.12C1249.75,8566.36 1264.19,8529.94 1252.19,8489.86C1242.63,8457.72 1222.89,8440.33 1192.99,8437.68Z" style="fill:#ffb100;fill-rule:nonzero;stroke:#000;stroke-opacity:0.65;stroke-width:33.33px;"/>
                    </g>
                    <g transform="matrix(1,0,0,1,-3433.07,-198.449)">
                        <path d="M5888.75,11449.8C5763.02,11449.8 5668.21,11496.9 5604.33,11591.1C5554.89,11664.1 5521.32,11760.9 5503.62,11881.6L5503.01,11884.6C5461.3,11817.3 5437.4,11758.5 5431.29,11708.2L5262.53,11708.2C5280.64,11792.5 5284.61,11892.1 5274.43,12007C5271.38,12043 5267.01,12078.5 5261.31,12113.5C5259.48,12124.3 5257.65,12134.5 5255.82,12144C5255.21,12147.1 5254.7,12149.8 5254.29,12152.3L5253.99,12153.5L5253.99,12154.4L5253.68,12155L5253.68,12155.3L5409.02,12155.3C5393.96,12117.1 5386.13,12072.9 5385.52,12022.9C5385.52,12006.8 5386.13,11991.7 5387.35,11977.4C5387.96,11972.3 5388.57,11968.2 5389.18,11964.9C5389.59,11961.8 5389.89,11960.5 5390.1,11960.9C5389.89,11960.7 5390.1,11960.8 5390.71,11961.2C5391.11,11961.6 5391.72,11962.3 5392.54,11963.1C5394.78,11965.5 5397.32,11968.5 5400.17,11971.9C5409.12,11982.7 5417.97,11995.1 5426.72,12009.1C5438.92,12028.3 5449.81,12048.7 5459.37,12070.5C5471.37,12097.8 5480.94,12126 5488.06,12155.3L5662.31,12155.3C5639.93,11999.7 5639.02,11869.9 5659.57,11765.9C5679.71,11663.2 5718.87,11594.7 5777.06,11560.5C5812.46,11539.4 5846.54,11528.7 5879.29,11528.5C5898.01,11528.3 5915.61,11531.9 5932.09,11539.2C5951.21,11547.5 5964.64,11559.2 5972.37,11574.3C5968.51,11569.2 5963.01,11566.2 5955.89,11565.4C5949.99,11564.6 5943.68,11565.3 5936.97,11567.6C5923.34,11572 5916.22,11582.5 5915.61,11599C5915,11614 5918.97,11627.1 5927.51,11638.1C5936.46,11649.4 5947.14,11657 5959.55,11660.6C5971.15,11664.1 5983.05,11663.9 5995.26,11660C6007.26,11656.6 6017.84,11650.3 6027,11641.1C6036.56,11631.7 6043.17,11620.8 6046.83,11608.1C6053.14,11587 6052.63,11566.3 6045.31,11546.2C6038.59,11527.7 6026.69,11510.9 6009.6,11495.8C5993.53,11481.6 5974.71,11470.3 5953.15,11462C5931.58,11453.8 5910.11,11449.8 5888.75,11449.8Z" style="fill:#ffb100;fill-rule:nonzero;stroke:#000;stroke-opacity:0.65;stroke-width:33.33px;"/>
                    </g>
                </g>
                <g>
                    <g transform="matrix(1,0,0,1,25.1279,3099.22)">
                        <g transform="matrix(1,0,0,1,100,0)">
                            <path d="M850.792,7872.53C843.183,7886.01 825.371,7895.87 797.356,7902.1C773.491,7907.63 745.995,7909.88 714.867,7908.84C719.017,7862.84 724.032,7816.32 729.912,7769.28C783.175,7764.79 821.566,7773.26 845.085,7794.7C867.221,7815.46 869.123,7841.4 850.792,7872.53ZM740.288,8191.59C728.528,8193.32 717.288,8194.01 706.566,8193.66C704.837,8151.47 704.145,8107.54 704.491,8061.89C733.198,8060.16 756.198,8061.2 773.491,8065C806.348,8071.57 828.83,8081.26 840.935,8094.05C852.003,8105.81 853.905,8118.78 846.642,8132.96C840.416,8146.11 827.446,8158.21 807.732,8169.28C787.672,8180.35 765.19,8187.78 740.288,8191.59ZM1081.66,8134.52C1078.89,8117.92 1074.91,8102.35 1069.72,8087.83C1061.77,8064.31 1051.39,8045.11 1038.6,8030.24C1027.53,8017.1 1011.1,8003.61 989.311,7989.77C964.063,7974.21 944.522,7967.29 930.687,7969.02L931.725,7968.5L932.243,7968.5C951.958,7966.43 971.499,7956.05 990.868,7937.38C1016.46,7912.82 1031.85,7884.11 1037.04,7851.25C1041.88,7821.16 1037.9,7790.73 1025.11,7759.95C1013,7729.86 994.672,7703.92 970.116,7682.13C944.522,7659.3 916.507,7644.25 886.07,7636.99C849.409,7628.69 799.777,7624.37 737.175,7624.02C668.348,7623.68 595.889,7623.5 519.798,7623.5C519.453,7623.5 515.994,7623.68 509.422,7624.02L500.084,7624.02L489.708,7624.54C471.031,7624.89 461.52,7624.54 461.174,7623.5C498.873,7777.41 511.843,7943.95 500.084,8123.11C496.28,8183.63 489.708,8242.26 480.37,8298.98C477.257,8319.73 473.798,8338.92 469.994,8356.56C467.227,8370.4 464.633,8381.47 462.212,8389.77L740.807,8389.77C833.845,8389.77 913.221,8371.61 978.935,8335.29C1062.29,8288.6 1096.53,8221.68 1081.66,8134.52Z" style="fill:#ffb100;fill-rule:nonzero;"/>
                            <path d="M1102.2,8131.04C1118.64,8227.47 1081.34,8301.81 989.012,8353.53C920.499,8391.39 837.807,8410.6 740.807,8410.6L462.212,8410.6C455.654,8410.6 449.48,8407.51 445.545,8402.27C441.611,8397.02 440.376,8390.23 442.212,8383.93C444.505,8376.07 446.944,8365.58 449.629,8352.17C453.347,8334.93 456.724,8316.17 459.813,8295.59C469.041,8239.54 475.532,8181.61 479.295,8121.74C490.906,7944.85 478.161,7780.42 440.939,7628.46C438.28,7617.6 444.66,7606.58 455.397,7603.49C459.407,7602.33 463.492,7602.43 467.219,7603.56C470.271,7603.65 479.513,7603.88 489.047,7603.71L499.044,7603.21C499.39,7603.2 499.737,7603.19 500.084,7603.19L508.901,7603.19C515.793,7602.82 519.426,7602.67 519.798,7602.67C595.926,7602.67 668.419,7602.84 737.29,7603.19C801.782,7603.54 852.902,7608.12 890.906,7616.73C924.593,7624.77 955.655,7641.31 983.943,7666.54C1010.96,7690.52 1031.12,7719.06 1044.35,7751.95C1058.72,7786.54 1063.05,7820.75 1057.62,7854.5C1051.72,7891.83 1034.37,7924.51 1005.33,7952.37C1000.12,7957.39 994.893,7961.88 989.639,7965.85C993.155,7967.79 996.769,7969.9 1000.48,7972.19C1024.43,7987.39 1042.37,8002.37 1054.39,8016.65C1068.74,8033.33 1080.54,8054.77 1089.35,8080.82C1094.93,8096.45 1099.22,8113.18 1102.2,8131.04ZM520.181,7644.34L510.517,7644.82C510.153,7644.84 509.788,7644.85 509.422,7644.85L500.605,7644.85L490.748,7645.35L490.094,7645.37L487.707,7645.4C521.013,7793.74 532.1,7953.42 520.876,8124.41C517.027,8185.65 510.375,8244.97 500.973,8302.07C497.789,8323.29 494.249,8342.92 490.422,8360.65C489.847,8363.52 489.279,8366.29 488.712,8368.93L740.807,8368.93C829.883,8368.93 905.942,8351.83 968.754,8317.12C1043.23,8275.4 1074.41,8215.9 1061.12,8138.02L1061.11,8137.94C1058.55,8122.62 1054.89,8108.24 1049.99,8094.5C1043,8073.84 1034.05,8056.89 1022.66,8043.66C1012.69,8031.82 997.771,8019.82 978.379,8007.51C958.689,7995.37 944.06,7988.35 933.271,7989.69C923.201,7990.95 913.689,7984.77 910.748,7975.06C907.807,7965.35 912.293,7954.93 921.37,7950.39L922.408,7949.87C925.022,7948.56 927.879,7947.82 930.792,7947.7C946.232,7945.86 961.224,7937.02 976.444,7922.34C998.556,7901.13 1011.98,7876.39 1016.47,7847.94C1020.72,7821.57 1017.09,7794.92 1005.78,7767.72C994.889,7740.65 978.384,7717.32 956.249,7697.67C933.388,7677.28 908.42,7663.74 881.47,7657.31C845.915,7649.26 797.771,7645.19 737.07,7644.85C668.393,7644.51 596.098,7644.34 520.181,7644.34ZM865.425,8141.97C857.709,8158.2 842.274,8173.78 817.796,8187.52C795.672,8199.73 770.898,8207.99 743.434,8212.18L743.319,8212.2C730.269,8214.12 717.793,8214.87 705.894,8214.48C694.985,8214.13 686.197,8205.42 685.75,8194.51C684.008,8151.99 683.31,8107.73 683.658,8061.73C683.741,8050.77 692.299,8041.75 703.238,8041.09C734.332,8039.22 759.236,8040.53 777.577,8044.57C816.06,8052.27 841.891,8064.75 856.106,8079.77C873.805,8098.58 876.84,8119.32 865.425,8141.97ZM725.246,8081.93C725.212,8112.85 725.673,8142.95 726.637,8172.23L729.492,8171.96C730.779,8171.81 732.066,8171.66 733.353,8171.51L737.199,8170.98C759.519,8167.57 779.687,8160.96 797.533,8151.11C812.577,8142.67 823.063,8134.07 827.814,8124.04C827.906,8123.85 828.001,8123.66 828.099,8123.47C830.927,8117.94 830.074,8112.91 825.8,8108.37C815.764,8097.76 796.646,8090.88 769.015,8085.35C757.29,8082.77 742.699,8081.68 725.246,8081.93ZM1102.2,8131.04L1102.19,8131.01L1102.21,8131.09L1102.2,8131.04ZM868.744,7883.1C880.463,7863.2 885.107,7844.78 883.891,7828.2C882.574,7810.24 874.658,7793.87 859.334,7779.51C832.295,7754.85 788.913,7743.4 728.159,7748.53C718.351,7749.35 710.46,7756.93 709.239,7766.7C703.33,7813.98 698.289,7860.73 694.118,7906.97C693.603,7912.68 695.461,7918.34 699.256,7922.64C703.05,7926.93 708.446,7929.47 714.173,7929.66C747.341,7930.77 776.633,7928.29 802.062,7922.39C837.618,7914.49 859.23,7899.97 868.937,7882.76L868.744,7883.1ZM737.725,7888.16C757.89,7887.71 776.239,7885.61 792.836,7881.76C813.165,7877.24 827.125,7872.08 832.647,7862.29L832.84,7861.95C845.077,7841.17 845.613,7823.76 831.049,7810.1C813.395,7794 785.704,7787.78 748.475,7789.03C744.451,7822.33 740.865,7855.37 737.725,7888.16ZM480.593,7615.96L480.938,7616.91C480.832,7616.6 480.718,7616.28 480.593,7615.96ZM480.201,7615.02L480.493,7615.72L480.233,7615.08L480.201,7615.02ZM479.771,7614.11L480.051,7614.7L479.801,7614.17L479.771,7614.11ZM479.308,7613.24L479.394,7613.4L479.314,7613.25L479.308,7613.24Z" style="fill-opacity:0.65;"/>
                        </g>
                        <g transform="matrix(1,0,0,1,80,0)">
                            <path d="M1397.09,8055.14C1411.27,7984.24 1432.19,7908.32 1459.86,7827.39C1486.49,7904.52 1506.73,7976.98 1520.56,8044.77C1481.82,8058.26 1440.67,8061.71 1397.09,8055.14ZM1823.54,8389.77C1822.85,8386.66 1794.23,8302.95 1737.68,8138.67C1681.13,7974.38 1661.5,7803.18 1678.8,7625.06L1241.45,7625.06C1248.37,7831.19 1226.06,8009.4 1174.52,8159.68C1122.99,8309.96 1096.88,8386.66 1096.18,8389.77L1399.68,8389.77C1383.08,8342.38 1375.64,8285.84 1377.37,8220.12C1441.01,8238.45 1496.01,8237.07 1542.35,8215.97C1544.43,8283.41 1537.16,8341.35 1520.56,8389.77L1823.54,8389.77Z" style="fill:#ffb100;fill-rule:nonzero;"/>
                            <path d="M1398.02,8246.77C1398.68,8298.59 1405.71,8343.98 1419.34,8382.88C1421.58,8389.25 1420.58,8396.31 1416.67,8401.82C1412.77,8407.33 1406.43,8410.6 1399.68,8410.6L1096.18,8410.6C1089.87,8410.6 1083.89,8407.73 1079.93,8402.8C1075.98,8397.87 1074.48,8391.42 1075.85,8385.25C1076.55,8382.11 1102.79,8304.64 1154.82,8152.92C1205.63,8004.75 1227.45,7829.01 1220.63,7625.76C1220.44,7620.11 1222.55,7614.64 1226.47,7610.58C1230.4,7606.52 1235.8,7604.23 1241.45,7604.23L1678.8,7604.23C1684.67,7604.23 1690.27,7606.71 1694.22,7611.06C1698.17,7615.41 1700.1,7621.22 1699.53,7627.07C1682.53,7802.14 1701.8,7970.42 1757.38,8131.89C1814.43,8297.63 1843.18,8382.11 1843.88,8385.25C1845.25,8391.42 1843.75,8397.87 1839.79,8402.8C1835.84,8407.73 1829.86,8410.6 1823.54,8410.6L1520.56,8410.6C1513.83,8410.6 1507.52,8407.35 1503.61,8401.88C1499.7,8396.4 1498.67,8389.38 1500.85,8383.01C1514.32,8343.75 1521.23,8297.93 1521.82,8245.59C1484.95,8255.96 1443.69,8256.5 1398.02,8246.77ZM1656.04,7645.89L1262.88,7645.89C1267.67,7845.81 1244.68,8019.31 1194.23,8166.44C1159.53,8267.64 1136.41,8335.13 1124.95,8368.93L1371.56,8368.93C1360.14,8325.57 1355.07,8275.79 1356.55,8219.57C1356.72,8213.13 1359.86,8207.12 1365.07,8203.31C1370.27,8199.5 1376.94,8198.32 1383.14,8200.1C1441.22,8216.83 1491.42,8216.26 1533.72,8197.01C1540.07,8194.12 1547.43,8194.6 1553.35,8198.28C1559.27,8201.96 1562.96,8208.36 1563.17,8215.33C1564.96,8273.27 1560,8324.46 1548.51,8368.93L1794.73,8368.93C1782.46,8332.84 1756.84,8258.36 1717.98,8145.45C1662.88,7985.38 1642.22,7818.87 1656.04,7645.89ZM1376.66,8051.06C1375.54,8056.64 1376.76,8062.45 1380.03,8067.11C1383.31,8071.77 1388.35,8074.89 1393.98,8075.74C1441.08,8082.85 1485.55,8079.02 1527.41,8064.44C1537.26,8061.01 1543.06,8050.82 1540.97,8040.6C1526.97,7971.99 1506.51,7898.65 1479.55,7820.59C1476.65,7812.18 1468.73,7806.54 1459.83,7806.56C1450.93,7806.57 1443.03,7812.23 1440.15,7820.65C1412.16,7902.52 1391,7979.33 1376.66,8051.06ZM1459.94,7894.41C1444.62,7943.96 1432.02,7991.47 1422.16,8036.95C1447.8,8038.69 1472.48,8036.52 1496.21,8030.39C1486.73,7986.95 1474.63,7941.62 1459.94,7894.41Z" style="fill-opacity:0.65;"/>
                        </g>
                        <g transform="matrix(1,0,0,1,10,0)">
                            <path d="M2286.83,7853.85C2280.26,7912.99 2230.8,7936.16 2138.45,7923.37C2134.65,7880.48 2132.57,7835.69 2132.22,7789C2173.73,7786.92 2208.83,7790.38 2237.54,7799.38C2273.16,7810.79 2289.59,7828.95 2286.83,7853.85ZM2582.02,8301.57C2590.67,8268.72 2562.48,8196.95 2551.41,8205.59C2529.28,8223.23 2508.35,8226.52 2488.64,8215.45C2477.92,8209.92 2468.23,8200.58 2459.59,8187.44C2453.02,8178.1 2446.27,8165.82 2439.35,8150.6C2439.35,8150.26 2436.93,8144.55 2432.09,8133.48L2418.6,8102.35L2404.08,8071.74C2395.43,8054.11 2385.57,8038.02 2374.5,8023.5C2405.98,8013.47 2427.42,8005.86 2438.84,8000.67C2470.66,7986.83 2494.52,7964.87 2510.43,7934.78C2524.26,7909.19 2531.18,7880.83 2531.18,7849.7C2531.18,7842.44 2530.84,7835 2530.14,7827.39C2529.11,7816.67 2527.38,7806.12 2524.96,7795.74C2518.73,7767.38 2508.01,7742.13 2492.79,7720C2448.87,7656.01 2373.29,7624.02 2266.08,7624.02L1900.84,7624.02C1938.54,7879.96 1938.19,8132.1 1899.8,8380.43C1899.46,8382.16 1899.11,8383.72 1898.77,8385.1L1898.77,8386.66L2205.89,8386.66C2181.68,8286.7 2165.77,8180.35 2158.16,8067.59L2168.02,8070.71C2200.19,8083.85 2223.53,8106.85 2238.06,8139.71C2243.59,8152.5 2248.44,8167.72 2252.59,8185.36L2257.26,8209.23L2261.41,8232.57L2268.67,8268.89C2271.44,8282.38 2274.38,8294.31 2277.49,8304.68C2285.79,8330.62 2296.86,8351.72 2310.69,8367.98C2348.05,8412.59 2394.56,8431.1 2450.25,8423.49C2476.88,8419.68 2500.92,8409.66 2522.36,8393.4C2543.81,8376.8 2560.41,8355.7 2572.17,8330.11C2575.97,8321.11 2579.26,8311.6 2582.02,8301.57Z" style="fill:#ffb100;fill-rule:nonzero;"/>
                            <path d="M1879.29,8376.74C1917.29,8130.61 1917.59,7880.72 1880.23,7627.06C1879.35,7621.07 1881.12,7614.99 1885.07,7610.4C1889.03,7605.82 1894.79,7603.19 1900.84,7603.19L2266.08,7603.19C2381.72,7603.19 2462.59,7639.19 2509.96,7708.2C2526.66,7732.48 2538.47,7760.16 2545.24,7791.01C2547.87,7802.28 2549.75,7813.74 2550.89,7825.5C2551.64,7833.76 2552.01,7841.82 2552.01,7849.7C2552.01,7884.46 2544.21,7916.11 2528.85,7944.52C2510.68,7978.87 2483.47,8003.98 2447.46,8019.63C2439.18,8023.4 2425.83,8028.41 2407.39,8034.64C2412.87,8043.5 2418,8052.82 2422.78,8062.57C2422.82,8062.65 2422.86,8062.73 2422.9,8062.81L2437.42,8093.42C2437.53,8093.64 2437.62,8093.85 2437.72,8094.07C2437.72,8094.07 2451.21,8125.2 2451.18,8125.13C2455.21,8134.34 2457.67,8140.17 2458.61,8142.61C2464.78,8156.14 2470.75,8167.1 2476.62,8175.45C2476.75,8175.62 2476.87,8175.8 2476.99,8175.99C2483.38,8185.69 2490.28,8192.85 2498.2,8196.94L2498.84,8197.28C2511.37,8204.32 2524.36,8200.51 2538.59,8189.18C2547.86,8181.93 2562.42,8179.99 2575.63,8195.7C2583.16,8204.66 2592.45,8224.18 2598.28,8245.65C2604.19,8267.41 2606.36,8290.94 2602.17,8306.87L2602.11,8307.11C2599.09,8318.05 2595.5,8328.42 2591.35,8338.22L2591.1,8338.8C2577.89,8367.55 2559.2,8391.22 2534.95,8410C2510.64,8428.43 2483.39,8439.8 2453.07,8444.13C2389.91,8452.76 2337.08,8431.95 2294.83,8381.48C2279.41,8363.36 2266.9,8339.94 2257.53,8310.67C2254.26,8299.77 2251.17,8287.24 2248.26,8273.07C2248.25,8273.04 2248.25,8273.01 2248.24,8272.97L2240.98,8236.66C2240.95,8236.51 2240.92,8236.36 2240.89,8236.22C2240.89,8236.22 2236.74,8212.87 2236.81,8213.23L2232.23,8189.82C2228.42,8173.67 2224.01,8159.71 2219.01,8148.13C2210.3,8128.44 2197.86,8112.91 2181.64,8101.61C2189.92,8200.04 2204.75,8293.42 2226.14,8381.75C2227.65,8387.96 2226.22,8394.51 2222.27,8399.54C2218.32,8404.56 2212.28,8407.49 2205.89,8407.49L1898.77,8407.49C1887.26,8407.49 1877.93,8398.16 1877.93,8386.66L1877.93,8385.1C1877.93,8383.4 1878.14,8381.7 1878.55,8380.05C1878.8,8379.05 1879.05,8377.95 1879.29,8376.74ZM1924.86,7644.85C1958.56,7888.59 1957.96,8128.93 1923.07,8365.82L2179.63,8365.82C2158.51,8272.31 2144.42,8173.37 2137.38,8069C2136.91,8062.13 2139.88,8055.47 2145.29,8051.21C2150.7,8046.96 2157.87,8045.65 2164.44,8047.73L2174.3,8050.84C2174.84,8051.01 2175.38,8051.2 2175.9,8051.42C2213.17,8066.65 2240.29,8093.22 2257.18,8131.44C2263.14,8145.22 2268.4,8161.59 2272.87,8180.59C2272.93,8180.85 2272.98,8181.1 2273.03,8181.36L2277.7,8205.23C2277.72,8205.34 2277.75,8205.46 2277.77,8205.58C2277.77,8205.58 2281.92,8228.92 2281.84,8228.49L2285.47,8246.64C2285.47,8246.64 2289.1,8264.8 2289.08,8264.7C2291.7,8277.51 2294.49,8288.84 2297.33,8298.34C2304.68,8321.31 2314.31,8340.08 2326.67,8354.6C2359.01,8393.24 2399.22,8409.44 2447.3,8402.87C2470.37,8399.57 2491.2,8390.88 2509.61,8376.93C2528.32,8362.44 2542.8,8344.01 2553.1,8321.71C2556.49,8313.66 2559.42,8305.15 2561.9,8296.18C2564.59,8285.83 2561.9,8270.68 2558.07,8256.56C2555.95,8248.76 2551.94,8239.46 2548.69,8232.56C2524.17,8246.39 2500.66,8246.09 2478.44,8233.62L2479.09,8233.96C2465.67,8227.04 2453.29,8215.65 2442.45,8199.28C2435.3,8189.1 2427.91,8175.77 2420.39,8159.22C2420.07,8158.53 2419.8,8157.82 2419.56,8157.1C2419.06,8155.9 2416.33,8149.42 2413,8141.83C2412.99,8141.81 2412.99,8141.79 2412.97,8141.76L2399.63,8110.96L2385.37,8080.91C2377.34,8064.54 2368.21,8049.61 2357.93,8036.12C2353.83,8030.73 2352.6,8023.69 2354.64,8017.23C2356.67,8010.77 2361.72,8005.7 2368.18,8003.65C2398.52,7993.98 2419.21,7986.7 2430.53,7981.56C2457.84,7969.69 2478.36,7950.87 2492.1,7924.87C2504.32,7902.27 2510.35,7877.19 2510.35,7849.7C2510.35,7843.05 2510.03,7836.24 2509.41,7829.4C2508.46,7819.6 2506.88,7809.96 2504.61,7800.21C2498.99,7774.6 2489.36,7751.79 2475.62,7731.79C2435.14,7672.83 2364.87,7644.85 2266.08,7644.85L1924.86,7644.85ZM2307.53,7856.15C2311.28,7822.39 2292.2,7795.01 2243.9,7779.53C2213.08,7769.88 2175.56,7765.97 2131.18,7768.19C2120.04,7768.75 2111.31,7777.99 2111.39,7789.15C2111.74,7836.43 2113.85,7881.78 2117.7,7925.21C2118.56,7934.88 2125.98,7942.67 2135.59,7944C2244.41,7959.08 2299.79,7925.84 2307.53,7856.15ZM2153.33,7809.25C2153.93,7842.04 2155.43,7873.85 2157.81,7904.68C2223.61,7911.12 2261.12,7896.6 2266.12,7851.55C2267.91,7835.41 2254.27,7826.61 2231.31,7819.26C2209.35,7812.38 2183.35,7809.12 2153.33,7809.25Z" style="fill-opacity:0.65;"/>
                        </g>
                        <g transform="matrix(1,0,0,1,-60,0)">
                            <path d="M2943.63,8200.41C2912.15,8200.41 2885.87,8182.59 2864.77,8146.97C2842.98,8110.31 2832.09,8063.96 2832.09,8007.93C2832.09,7962.62 2841.6,7920.6 2860.62,7881.86C2883.45,7834.83 2908.52,7809.23 2935.85,7805.08C2951.41,7802.66 2966.8,7806.98 2982.02,7818.05C2996.2,7828.77 3008.3,7843.82 3018.33,7863.19C3030.09,7885.67 3039.26,7910.05 3045.83,7936.34C3051.71,7960.2 3054.65,7984.07 3054.65,8007.93C3054.65,8063.96 3043.76,8110.31 3021.97,8146.97C3000.87,8182.59 2974.75,8200.41 2943.63,8200.41ZM3235.71,7872.53C3217.03,7819.61 3190.58,7770.49 3156.33,7725.19C3126.93,7685.76 3092,7655.49 3051.54,7634.4C3007.96,7611.57 2963.34,7602.75 2917.69,7607.94C2839.18,7616.58 2766.72,7668.46 2700.31,7763.58C2645.66,7841.4 2618.34,7925.96 2618.34,8017.27C2618.34,8130.02 2649.64,8223.23 2712.24,8296.9C2773.81,8368.84 2849.72,8404.81 2939.99,8404.81C3030.27,8404.81 3106.01,8368.84 3167.23,8296.9C3229.83,8223.23 3261.13,8130.02 3261.13,8017.27C3261.13,7968.85 3252.66,7920.6 3235.71,7872.53Z" style="fill:#ffb100;fill-rule:nonzero;"/>
                            <path d="M3255.36,7865.59C3235.97,7810.65 3208.5,7759.66 3172.95,7712.62C3141.67,7670.66 3104.34,7638.43 3061.17,7615.92C3013.72,7591.07 2965.08,7581.59 2915.33,7587.24C2831.86,7596.43 2753.89,7650.44 2683.23,7751.65C2626.04,7833.09 2597.51,7921.66 2597.51,8017.27C2597.51,8135.51 2630.72,8233.14 2696.37,8310.39C2762.23,8387.36 2843.48,8425.65 2939.99,8425.65C3036.54,8425.65 3117.62,8387.34 3183.1,8310.4C3248.76,8233.14 3281.97,8135.51 3281.97,8017.27C3281.97,7966.53 3273.12,7915.97 3255.36,7865.6L3255.36,7865.59ZM3216.06,7879.45C3198.1,7828.56 3172.65,7781.33 3139.63,7737.64C3112.2,7700.85 3079.66,7672.56 3041.87,7652.85C3002.2,7632.07 2961.6,7623.91 2919.97,7628.65C2846.49,7636.74 2779.54,7686.49 2717.36,7775.55C2665.29,7849.7 2639.17,7930.26 2639.17,8017.27C2639.17,8124.53 2668.57,8213.33 2728.07,8283.36C2785.38,8350.32 2855.97,8383.98 2939.99,8383.98C3023.99,8383.98 3094.4,8350.34 3151.35,8283.41C3210.91,8213.33 3240.3,8124.53 3240.3,8017.27C3240.3,7971.16 3232.2,7925.23 3216.06,7879.45ZM2943.63,8221.24C2981.51,8221.24 3014.22,8200.94 3039.89,8157.59C3063.35,8118.12 3075.48,8068.29 3075.48,8007.93C3075.48,7982.41 3072.35,7956.88 3066.06,7931.35C3059.06,7903.34 3049.29,7877.43 3036.79,7853.53C3025.21,7831.16 3011.02,7813.86 2994.58,7801.43C2974.01,7786.47 2953.36,7781.27 2932.64,7784.5C2900.52,7789.38 2868.78,7817.34 2841.88,7872.77C2821.51,7914.24 2811.25,7959.32 2811.25,8007.93C2811.25,8068.29 2823.39,8118.12 2846.86,8157.61C2872.5,8200.91 2905.35,8221.24 2943.63,8221.24ZM2943.63,8179.57C2918.94,8179.57 2899.24,8164.29 2882.7,8136.35C2862.57,8102.49 2852.92,8059.64 2852.92,8007.93C2852.92,7965.93 2861.68,7926.96 2879.32,7891.05C2889.6,7869.86 2900.18,7853.45 2911.43,7841.97C2920.31,7832.91 2929.3,7827.15 2938.97,7825.68C2949.46,7824.05 2959.59,7827.5 2969.76,7834.9C2981.38,7843.69 2991.4,7856.48 2999.83,7872.77C3010.89,7893.91 3019.46,7916.76 3025.62,7941.39C3031.07,7963.53 3033.82,7985.73 3033.82,8007.93C3033.82,8059.64 3024.16,8102.49 3004.06,8136.33C2987.51,8164.26 2968.01,8179.57 2943.63,8179.57Z" style="fill-opacity:0.65;"/>
                        </g>
                        <g transform="matrix(1,0,0,1,-80,0)">
                            <path d="M3715.08,7625.06C3719.58,7642.01 3725.28,7684.89 3732.2,7753.72C3740.16,7833.27 3745.17,7907.46 3747.25,7976.28C3696.75,7911.26 3661.47,7853.33 3641.41,7802.49C3623.77,7758.91 3610.63,7701.32 3601.98,7629.73L3315.09,7629.73C3345.87,7772.92 3352.61,7942.22 3335.32,8137.63C3330.13,8198.85 3322.7,8259.2 3313.01,8318.69C3309.9,8337.02 3306.79,8354.32 3303.67,8370.57C3302.64,8375.76 3301.77,8380.43 3301.08,8384.58L3300.56,8386.66L3300.56,8388.21L3300.04,8389.25L3300.04,8389.77L3564.11,8389.77C3538.52,8324.75 3525.2,8249.69 3524.16,8164.61C3524.16,8137.29 3525.2,8111.52 3527.28,8087.31C3528.31,8078.66 3529.35,8071.57 3530.39,8066.04C3531.08,8060.85 3531.6,8058.6 3531.94,8059.29C3531.6,8058.95 3531.94,8059.12 3532.98,8059.81C3533.67,8060.5 3534.71,8061.54 3536.1,8062.92C3539.9,8067.07 3544.22,8072.09 3549.07,8077.97C3564.28,8096.3 3579.33,8117.4 3594.2,8141.26C3614.95,8173.77 3633.46,8208.53 3649.71,8245.54C3670.12,8291.89 3686.37,8339.96 3698.48,8389.77L3984.86,8389.77L3984.34,8389.25L3984.34,8388.21C3983.99,8386.83 3983.64,8385.44 3983.3,8384.06C3982.61,8378.87 3981.74,8373.34 3980.7,8367.46C3977.25,8348.78 3973.96,8328.9 3970.85,8307.8C3960.82,8240.35 3953.21,8173.95 3948.02,8108.58C3931.76,7899.33 3943.35,7738.16 3982.78,7625.06L3715.08,7625.06Z" style="fill:#ffb100;fill-rule:nonzero;"/>
                            <path d="M3723.48,7908.47C3720.81,7860 3716.8,7809.11 3711.47,7755.8C3704.73,7688.73 3699.33,7646.92 3694.94,7630.4C3693.28,7624.15 3694.62,7617.48 3698.57,7612.36C3702.51,7607.23 3708.61,7604.23 3715.08,7604.23L3982.78,7604.23C3989.53,7604.23 3995.86,7607.49 3999.76,7612.99C4003.67,7618.49 4004.67,7625.55 4002.45,7631.92C3963.72,7743.03 3952.82,7901.4 3968.79,8106.93C3973.94,8171.83 3981.5,8237.77 3991.46,8304.76C3994.53,8325.59 3997.78,8345.23 4001.22,8363.84C4002.23,8369.57 4003.09,8374.98 4003.78,8380.08L4004.41,8382.58C4006.18,8387.4 4006.15,8392.81 4004.1,8397.74C4000.88,8405.52 3993.28,8410.6 3984.86,8410.6L3698.48,8410.6C3688.87,8410.6 3680.51,8404.03 3678.24,8394.69C3666.42,8346.08 3650.56,8299.17 3630.64,8253.92C3614.82,8217.92 3596.83,8184.1 3576.52,8152.28C3566.64,8136.42 3556.68,8121.83 3546.62,8108.48C3545.53,8126.36 3544.99,8145.02 3544.99,8164.36C3546,8246.64 3558.74,8319.25 3583.5,8382.14C3586.02,8388.55 3585.21,8395.8 3581.33,8401.5C3577.45,8407.19 3571,8410.6 3564.11,8410.6L3300.04,8410.6C3288.53,8410.6 3279.21,8401.27 3279.21,8389.77L3279.21,8389.25C3279.21,8387.44 3279.44,8385.64 3279.91,8383.9C3280.01,8383.13 3280.16,8382.36 3280.35,8381.6L3280.69,8380.23C3281.38,8376.11 3282.23,8371.55 3283.21,8366.65C3286.3,8350.53 3289.39,8333.38 3292.45,8315.34C3302.05,8256.38 3309.42,8196.55 3314.57,8135.8C3331.65,7942.77 3325.12,7775.54 3294.72,7634.11C3293.4,7627.95 3294.93,7621.53 3298.88,7616.64C3302.84,7611.74 3308.79,7608.89 3315.09,7608.89L3601.98,7608.89C3612.52,7608.89 3621.4,7616.77 3622.66,7627.23C3631.04,7696.61 3643.63,7752.44 3660.79,7794.84C3674.41,7829.37 3695.34,7867.23 3723.48,7908.47ZM3954.27,7645.89L3740.26,7645.89C3743.95,7669.29 3748.2,7704.54 3752.93,7751.65C3760.94,7831.71 3765.98,7906.38 3768.07,7975.66C3768.34,7984.67 3762.78,7992.84 3754.3,7995.89C3745.81,7998.94 3736.32,7996.19 3730.79,7989.06C3678.83,7922.15 3642.67,7862.45 3622.1,7810.3C3605.45,7769.16 3592.55,7715.93 3583.66,7650.56L3340.58,7650.56C3367.33,7790.05 3372.57,7953.01 3356.08,8139.39C3350.85,8201.15 3343.34,8262.03 3333.55,8322.18C3330.77,8338.55 3327.99,8354.09 3325.18,8368.93L3534.49,8368.93C3514.69,8308.6 3504.25,8240.55 3503.33,8164.61C3503.33,8136.66 3504.39,8110.3 3506.52,8085.53C3506.54,8085.29 3506.56,8085.06 3506.59,8084.83C3507.67,8075.81 3508.76,8068.39 3509.85,8062.56C3510.14,8060.56 3510.51,8058.74 3510.93,8057.09C3511.25,8050.04 3514.77,8045.19 3520.04,8041.88C3524.4,8038.71 3528.88,8037.9 3533.08,8038.3C3534.74,8038.42 3536.55,8038.76 3538.47,8039.43C3540.24,8039.99 3542.21,8040.84 3544.14,8042.23L3544.54,8042.48C3545.68,8043.24 3546.74,8044.11 3547.71,8045.08C3548.41,8045.77 3549.44,8046.81 3550.83,8048.19C3551.04,8048.41 3551.25,8048.62 3551.45,8048.85C3555.47,8053.23 3560.03,8058.52 3565.09,8064.66C3580.87,8083.66 3596.47,8105.51 3611.76,8130.05C3633.08,8163.45 3652.09,8199.15 3668.78,8237.15C3687.49,8279.65 3702.8,8323.58 3714.69,8368.93L3959.8,8368.93C3956.45,8350.7 3953.26,8331.33 3950.24,8310.86C3940.14,8242.94 3932.48,8176.06 3927.25,8110.19C3911.99,7913.78 3921.25,7759.03 3954.27,7645.89ZM3539.21,8078.82C3536.75,8079.74 3534.16,8080.17 3531.58,8080.12C3533.85,8080.22 3536.2,8079.96 3538.54,8079.12L3539.21,8078.82ZM3515.26,8071.83C3516.86,8074.03 3518.65,8075.6 3520.44,8076.73L3520.22,8076.52C3519.16,8075.79 3518.15,8074.96 3517.21,8074.02C3516.47,8073.28 3515.82,8072.55 3515.26,8071.83ZM3548.63,8046.76C3549.33,8047.7 3549.98,8048.78 3550.58,8049.98C3552.71,8054.24 3553.25,8058.94 3552.38,8063.34C3553.38,8059.4 3553.73,8053.15 3548.63,8046.76Z" style="fill-opacity:0.65;"/>
                        </g>
                    </g>
                    <g transform="matrix(1,0,0,1,62.0706,3568.67)">
                        <path d="M834.404,8216.73C810.397,8241.55 790.561,8258.54 774.895,8267.7C740.308,8288.04 706.841,8287.43 674.492,8265.87C644.381,8245.93 625.562,8216.12 618.034,8176.45C613.152,8150.82 614.474,8125.89 622.002,8101.68C630.343,8075.03 644.686,8055.4 665.032,8042.78C673.78,8037.29 681.511,8033.22 688.225,8030.58C697.38,8026.71 705.823,8024.68 713.554,8024.47C721.489,8024.47 728.915,8025.8 735.832,8028.44C744.174,8031.49 750.074,8035.97 753.533,8041.87C755.974,8046.14 757.296,8050.11 757.5,8053.77L757.5,8053.46C750.582,8040.85 740.105,8034.85 726.067,8035.46C709.587,8036.27 698.296,8044.51 692.192,8060.18C688.937,8068.72 689.853,8078.18 694.939,8088.56C699.618,8098.12 706.027,8105.24 714.165,8109.92C730.237,8119.08 747.022,8122.64 764.519,8120.6C783.033,8118.57 797.986,8110.53 809.38,8096.49C820.773,8082.86 827.487,8062.42 829.521,8035.15C832.573,7994.46 816.195,7964.86 780.388,7946.35C751.295,7931.29 714.063,7925.19 668.694,7928.04C632.073,7930.28 598.198,7942.48 567.07,7964.66C534.925,7987.44 509.392,8016.33 490.471,8051.33C471.347,8086.32 461.683,8122.43 461.479,8159.66C461.276,8199.95 468.193,8236.47 482.231,8269.22C497.897,8305.84 521.192,8334.63 552.116,8355.59C596.469,8385.7 647.535,8399.74 705.315,8397.7C733.798,8396.68 760.246,8390.17 784.66,8378.17C812.737,8364.34 832.064,8345.62 842.644,8322.02C848.951,8307.78 851.392,8289.98 849.968,8268.61C848.34,8246.84 843.152,8229.55 834.404,8216.73Z" style="fill:#ffb100;fill-rule:nonzero;stroke:#000;stroke-opacity:0.65;stroke-width:33.33px;"/>
                    </g>
                    <g transform="matrix(1,0,0,1,62.0706,3568.67)">
                        <path d="M1507.01,8516.72C1499.69,8497.19 1488.8,8481.42 1474.36,8469.42C1458.49,8455.99 1440.59,8449.17 1420.65,8448.97C1394,8448.77 1373.55,8459.45 1359.31,8481.01C1349.34,8496.27 1346.69,8513.57 1351.37,8532.9C1356.26,8553.24 1367.75,8565.24 1385.86,8568.91C1412.51,8573.99 1430.82,8568.19 1440.79,8551.51C1442.82,8547.85 1444.04,8543.88 1444.45,8539.61L1444.45,8539.91L1444.76,8539.91C1444.96,8539.91 1444.96,8540.02 1444.76,8540.22C1446.38,8552.22 1443.33,8562.6 1435.6,8571.35C1427.87,8579.69 1418.61,8584.37 1407.83,8585.39C1392.16,8586.81 1375.48,8584.88 1357.78,8579.59C1349.03,8576.94 1341.61,8573.79 1335.5,8570.13C1302.34,8546.32 1277.83,8505.17 1261.95,8446.68C1246.09,8388.19 1238.15,8313.52 1238.15,8222.68C1238.15,8131.84 1239.73,8066.54 1242.88,8026.76C1246.04,7986.99 1252.6,7957.74 1262.57,7939.02L1107.54,7939.02C1113.84,7967.51 1117.81,7997.11 1119.44,8027.83C1120.46,8049.4 1119.74,8090.49 1117.3,8151.12C1097.57,8153.15 1077.73,8151.12 1057.79,8145.02C1050.06,8142.57 1042.43,8139.62 1034.9,8136.17C1029.01,8133.32 1023.31,8130.16 1017.82,8126.71C1019.65,8082.15 1024.22,8037.6 1031.55,7993.04C1033.79,7979.2 1036.23,7966.08 1038.87,7953.67C1039.28,7951.64 1039.69,7949.6 1040.09,7947.57C1040.5,7945.94 1040.81,7944.41 1041.01,7942.99L1041.62,7941.46L1041.92,7940.24L1041.92,7939.02L874.992,7939.02C897.169,8029.56 904.798,8127.42 897.881,8232.6C895.643,8268 891.777,8302.39 886.284,8335.75C884.453,8347.96 882.418,8359.25 880.18,8369.63C878.553,8377.56 877.027,8384.07 875.603,8389.16L1048.94,8389.16C1033.89,8343.18 1024.12,8292.21 1019.65,8236.26C1053.62,8253.76 1085.06,8258.44 1113.94,8250.3C1126.36,8532.08 1213.74,8671.95 1376.09,8669.92C1399.69,8669.31 1420.24,8666.46 1437.74,8661.37C1460.73,8654.86 1480,8639.45 1495.57,8615.14C1511.13,8590.83 1514.95,8558.02 1507.01,8516.72Z" style="fill:#ffb100;fill-rule:nonzero;stroke:#000;stroke-opacity:0.65;stroke-width:33.33px;"/>
                    </g>
                    <g transform="matrix(1,0,0,1,62.0706,3568.67)">
                        <path d="M1474.36,8192.93C1482.7,8151.22 1495.01,8106.56 1511.28,8058.96C1526.95,8104.33 1538.85,8146.95 1546.99,8186.83C1524.2,8194.76 1499.99,8196.8 1474.36,8192.93ZM1725.21,8389.77C1724.81,8387.94 1707.97,8338.7 1674.71,8242.06C1641.44,8145.42 1629.9,8044.72 1640.07,7939.94L1382.81,7939.94C1386.87,8061.2 1373.75,8166.02 1343.44,8254.42C1313.12,8342.82 1297.76,8387.94 1297.36,8389.77L1475.88,8389.77C1466.12,8361.9 1461.74,8328.63 1462.76,8289.98C1500.2,8300.76 1532.55,8299.94 1559.81,8287.53C1561.03,8327.21 1556.76,8361.28 1546.99,8389.77L1725.21,8389.77Z" style="fill:#ffb100;fill-rule:nonzero;stroke:#000;stroke-opacity:0.65;stroke-width:33.33px;"/>
                    </g>
                    <g transform="matrix(1,0,0,1,22.0706,3568.67)">
                        <path d="M2397.51,8279.6C2396.5,8279.6 2395.38,8272.17 2394.16,8257.32C2392.53,8240.84 2391.51,8222.43 2391.11,8202.09C2389.68,8144.51 2393.34,8097.92 2402.09,8062.31C2402.91,8058.86 2407.59,8058.24 2416.13,8060.48C2419.18,8061.3 2423.05,8062.52 2427.73,8064.15L2433.22,8065.98C2435.46,8066.79 2437.09,8067.4 2438.1,8067.81C2464.35,8076.96 2482.96,8093.34 2493.95,8116.94C2503.92,8138.51 2506.26,8162.21 2500.97,8188.05C2495.48,8213.48 2483.88,8234.74 2466.18,8251.83C2446.85,8270.34 2423.96,8279.6 2397.51,8279.6ZM2629.14,8145.32C2626.5,8116.84 2619.89,8090.49 2609.31,8066.28C2584.49,8009.93 2543.49,7972.8 2486.32,7954.89C2450.72,7943.5 2394.16,7938.01 2316.64,7938.41L2271.78,7938.41L2262.93,7938.11L2243.71,7938.11C2265.88,8028.64 2273.51,8126.5 2266.59,8231.69C2264.36,8267.09 2260.49,8301.47 2255,8334.84C2253.17,8346.84 2251.13,8358.13 2248.89,8368.71C2247.27,8376.65 2245.74,8383.16 2244.32,8388.24C2314.91,8389.67 2350.11,8390.07 2349.91,8389.46L2434.14,8389.46C2470.15,8389.46 2502.09,8382.04 2529.96,8367.18C2559.46,8351.52 2582.55,8328.43 2599.24,8297.91C2624.06,8252.13 2634.03,8201.27 2629.14,8145.32Z" style="fill:#ffb100;fill-rule:nonzero;stroke:#000;stroke-opacity:0.65;stroke-width:33.33px;"/>
                    </g>
                    <g transform="matrix(1,0,0,1,22.0706,3568.67)">
                        <path d="M2864.74,8295.77C2836.66,8295.77 2817.13,8283.06 2806.14,8257.63C2801.67,8247.66 2798.62,8235.45 2796.99,8221.01C2795.57,8210.22 2794.85,8197.51 2794.85,8182.86C2794.85,8138.51 2800.04,8086.53 2810.42,8026.91C2813.67,8007.99 2817.44,7988.66 2821.71,7968.93C2822.52,7965.47 2823.34,7961.91 2824.15,7958.25C2824.56,7956.01 2825.17,7953.27 2825.98,7950.01C2827.2,7944.31 2827.91,7940.96 2828.12,7939.94L2653.25,7939.94C2675.43,8030.27 2683.06,8128.03 2676.14,8233.21C2673.9,8268.82 2670.04,8303.3 2664.54,8336.67C2662.71,8348.67 2660.68,8359.96 2658.44,8370.54C2656.81,8378.48 2655.29,8384.89 2653.86,8389.77L2987.42,8389.77L2987.42,8194.15C2978.06,8211.04 2965.95,8228.02 2951.1,8245.11C2938.08,8259.97 2925.06,8271.56 2912.04,8279.9C2895.76,8290.48 2880,8295.77 2864.74,8295.77Z" style="fill:#ffb100;fill-rule:nonzero;stroke:#000;stroke-opacity:0.65;stroke-width:33.33px;"/>
                    </g>
                    <g transform="matrix(1,0,0,1,22.0706,3568.67)">
                        <path d="M3252.92,8285.4C3229.93,8285.4 3211.42,8280.82 3197.38,8271.67C3185.17,8263.53 3177.54,8252.95 3174.49,8239.93C3171.64,8227.52 3173.17,8215.61 3179.07,8204.22C3185.17,8192.42 3194.43,8183.98 3206.84,8178.89C3209.69,8190.49 3215.89,8200.05 3225.46,8207.58C3235.02,8215.31 3245.9,8219.17 3258.11,8219.17C3272.76,8219.17 3285.27,8213.99 3295.65,8203.61C3305.82,8193.23 3310.91,8180.82 3310.91,8166.38C3310.91,8155.19 3307.75,8145.02 3301.45,8135.86C3294.93,8125.28 3282.63,8117.25 3264.52,8111.75C3244.58,8105.65 3224.34,8105.55 3203.79,8111.45C3188.12,8115.92 3172.76,8123.76 3157.71,8134.95C3161.17,8103.41 3171.85,8077.17 3189.75,8056.21C3207.86,8035.05 3228.91,8024.47 3252.92,8024.47C3270.01,8024.47 3285.88,8030.17 3300.53,8041.56C3314.77,8052.55 3326.27,8067.4 3335.01,8086.12C3338.07,8051.53 3342.24,8016.84 3347.53,7982.05C3349.15,7971.07 3350.88,7960.79 3352.72,7951.23C3353.12,7948.18 3353.63,7945.43 3354.24,7942.99C3354.24,7942.18 3354.34,7941.36 3354.55,7940.55L3354.55,7939.94L3354.85,7939.94L3019.46,7939.94C3041.64,8024.57 3049.27,8120.6 3042.35,8228.02C3040.11,8264.44 3036.25,8299.94 3030.75,8334.53C3028.92,8347.15 3026.89,8358.94 3024.65,8369.93C3023.02,8378.48 3021.5,8385.09 3020.07,8389.77L3353.63,8389.77C3339.59,8349.08 3331.66,8297.2 3329.83,8234.13C3320.67,8250 3309.58,8262.41 3296.56,8271.36C3282.93,8280.72 3268.38,8285.4 3252.92,8285.4Z" style="fill:#ffb100;fill-rule:nonzero;stroke:#000;stroke-opacity:0.65;stroke-width:33.33px;"/>
                    </g>
                    <g transform="matrix(1,0,0,1,2979.87,3568.67)">
                        <path d="M592.095,8111.45C590.06,8088.05 588.941,8063.64 588.738,8038.2C613.152,8036.98 633.802,8038.82 650.688,8043.7C671.644,8049.8 681.308,8059.67 679.68,8073.3C675.611,8105.65 646.416,8118.36 592.095,8111.45ZM1192.99,8437.68C1180.98,8436.66 1169.28,8438.39 1157.89,8442.87C1146.9,8446.94 1138.56,8452.63 1132.87,8459.96C1119.24,8477.45 1115.06,8494.55 1120.35,8511.23C1125.64,8528.52 1139.48,8537.47 1161.86,8538.08C1161.45,8538.9 1161.86,8539.81 1163.08,8540.83C1164.3,8541.64 1165.21,8542.15 1165.83,8542.36C1165.62,8542.56 1164.91,8542.86 1163.69,8543.27L1161.86,8543.88C1083.53,8589.66 1001.13,8564.58 914.665,8468.66C828.199,8372.73 770.622,8273.6 741.936,8171.26C753.533,8167.4 761.467,8164.55 765.74,8162.72C784.457,8154.58 798.495,8141.56 807.854,8123.65C815.992,8108.6 820.061,8091.92 820.061,8073.61C820.061,8069.33 819.857,8064.96 819.45,8060.48C818.84,8054.18 817.823,8047.97 816.399,8041.87C812.737,8025.39 806.43,8010.64 797.478,7997.62C771.64,7959.78 727.186,7940.85 664.116,7940.85L463.005,7940.85C480.705,8005.55 485.792,8099.55 478.264,8222.84C476.026,8261.7 472.567,8301.06 467.888,8340.94C466.464,8353.35 465.04,8365.15 463.616,8376.34C463.209,8380 462.802,8383.26 462.395,8386.11C462.191,8387.12 461.988,8387.94 461.784,8388.55L461.784,8389.46L628.716,8389.46C613.66,8327.82 604.098,8262.41 600.029,8193.23C600.233,8195.07 601.148,8196.59 602.776,8197.81C656.08,8324.97 717.827,8427.81 788.017,8506.34C884.249,8613.56 986.178,8660.76 1093.8,8647.95C1136.12,8643.06 1174.47,8626.79 1208.86,8599.12C1249.75,8566.36 1264.19,8529.94 1252.19,8489.86C1242.63,8457.72 1222.89,8440.33 1192.99,8437.68Z" style="fill:#ffb100;fill-rule:nonzero;stroke:#000;stroke-opacity:0.65;stroke-width:33.33px;"/>
                    </g>
                    <g transform="matrix(1,0,0,1,-3433.07,-198.449)">
                        <path d="M5888.75,11449.8C5763.02,11449.8 5668.21,11496.9 5604.33,11591.1C5554.89,11664.1 5521.32,11760.9 5503.62,11881.6L5503.01,11884.6C5461.3,11817.3 5437.4,11758.5 5431.29,11708.2L5262.53,11708.2C5280.64,11792.5 5284.61,11892.1 5274.43,12007C5271.38,12043 5267.01,12078.5 5261.31,12113.5C5259.48,12124.3 5257.65,12134.5 5255.82,12144C5255.21,12147.1 5254.7,12149.8 5254.29,12152.3L5253.99,12153.5L5253.99,12154.4L5253.68,12155L5253.68,12155.3L5409.02,12155.3C5393.96,12117.1 5386.13,12072.9 5385.52,12022.9C5385.52,12006.8 5386.13,11991.7 5387.35,11977.4C5387.96,11972.3 5388.57,11968.2 5389.18,11964.9C5389.59,11961.8 5389.89,11960.5 5390.1,11960.9C5389.89,11960.7 5390.1,11960.8 5390.71,11961.2C5391.11,11961.6 5391.72,11962.3 5392.54,11963.1C5394.78,11965.5 5397.32,11968.5 5400.17,11971.9C5409.12,11982.7 5417.97,11995.1 5426.72,12009.1C5438.92,12028.3 5449.81,12048.7 5459.37,12070.5C5471.37,12097.8 5480.94,12126 5488.06,12155.3L5662.31,12155.3C5639.93,11999.7 5639.02,11869.9 5659.57,11765.9C5679.71,11663.2 5718.87,11594.7 5777.06,11560.5C5812.46,11539.4 5846.54,11528.7 5879.29,11528.5C5898.01,11528.3 5915.61,11531.9 5932.09,11539.2C5951.21,11547.5 5964.64,11559.2 5972.37,11574.3C5968.51,11569.2 5963.01,11566.2 5955.89,11565.4C5949.99,11564.6 5943.68,11565.3 5936.97,11567.6C5923.34,11572 5916.22,11582.5 5915.61,11599C5915,11614 5918.97,11627.1 5927.51,11638.1C5936.46,11649.4 5947.14,11657 5959.55,11660.6C5971.15,11664.1 5983.05,11663.9 5995.26,11660C6007.26,11656.6 6017.84,11650.3 6027,11641.1C6036.56,11631.7 6043.17,11620.8 6046.83,11608.1C6053.14,11587 6052.63,11566.3 6045.31,11546.2C6038.59,11527.7 6026.69,11510.9 6009.6,11495.8C5993.53,11481.6 5974.71,11470.3 5953.15,11462C5931.58,11453.8 5910.11,11449.8 5888.75,11449.8Z" style="fill:#ffb100;fill-rule:nonzero;stroke:#000;stroke-opacity:0.65;stroke-width:33.33px;"/>
                    </g>
                </g>
            </g>
            <g transform="matrix(1,0,0,1,-3433.07,-198.449)">
                <path d="M5888.75,11449.8C5763.02,11449.8 5668.21,11496.9 5604.33,11591.1C5554.89,11664.1 5521.32,11760.9 5503.62,11881.6L5503.01,11884.6C5461.3,11817.3 5437.4,11758.5 5431.29,11708.2L5262.53,11708.2C5280.64,11792.5 5284.61,11892.1 5274.43,12007C5271.38,12043 5267.01,12078.5 5261.31,12113.5C5259.48,12124.3 5257.65,12134.5 5255.82,12144C5255.21,12147.1 5254.7,12149.8 5254.29,12152.3L5253.99,12153.5L5253.99,12154.4L5253.68,12155L5253.68,12155.3L5409.02,12155.3C5393.96,12117.1 5386.13,12072.9 5385.52,12022.9C5385.52,12006.8 5386.13,11991.7 5387.35,11977.4C5387.96,11972.3 5388.57,11968.2 5389.18,11964.9C5389.59,11961.8 5389.89,11960.5 5390.1,11960.9C5389.89,11960.7 5390.1,11960.8 5390.71,11961.2C5391.11,11961.6 5391.72,11962.3 5392.54,11963.1C5394.78,11965.5 5397.32,11968.5 5400.17,11971.9C5409.12,11982.7 5417.97,11995.1 5426.72,12009.1C5438.92,12028.3 5449.81,12048.7 5459.37,12070.5C5471.37,12097.8 5480.94,12126 5488.06,12155.3L5662.31,12155.3C5639.93,11999.7 5639.02,11869.9 5659.57,11765.9C5679.71,11663.2 5718.87,11594.7 5777.06,11560.5C5812.46,11539.4 5846.54,11528.7 5879.29,11528.5C5898.01,11528.3 5915.61,11531.9 5932.09,11539.2C5951.21,11547.5 5964.64,11559.2 5972.37,11574.3C5968.51,11569.2 5963.01,11566.2 5955.89,11565.4C5949.99,11564.6 5943.68,11565.3 5936.97,11567.6C5923.34,11572 5916.22,11582.5 5915.61,11599C5915,11614 5918.97,11627.1 5927.51,11638.1C5936.46,11649.4 5947.14,11657 5959.55,11660.6C5971.15,11664.1 5983.05,11663.9 5995.26,11660C6007.26,11656.6 6017.84,11650.3 6027,11641.1C6036.56,11631.7 6043.17,11620.8 6046.83,11608.1C6053.14,11587 6052.63,11566.3 6045.31,11546.2C6038.59,11527.7 6026.69,11510.9 6009.6,11495.8C5993.53,11481.6 5974.71,11470.3 5953.15,11462C5931.58,11453.8 5910.11,11449.8 5888.75,11449.8Z" style="fill:#ffb100;fill-rule:nonzero;stroke:#000;stroke-opacity:0.65;stroke-width:33.33px;"/>
            </g>
        </g>
    </g>
</svg>
